/* XPM */
static char *_a9ad64cf7ec407cf6abcc5ed77facfbBcOzl5QedwSWnnhk[] = {
/* columns rows colors chars-per-pixel */
"64 64 245 2 ",
"   c #2C0900",
".  c #301C00",
"X  c #2C1908",
"o  c #3B2B0A",
"O  c #3B2110",
"+  c #301120",
"@  c #2D1626",
"#  c #452A06",
"$  c #502F00",
"%  c #4A320A",
"&  c #533809",
"*  c #472D18",
"=  c #4B3916",
"-  c #51371E",
";  c #673C07",
":  c #57431C",
">  c #6C4505",
",  c #684518",
"<  c #7C5F17",
"1  c #6D520E",
"2  c #704F27",
"3  c #726022",
"4  c #874B12",
"5  c #835900",
"6  c #9B601E",
"7  c #B47505",
"8  c #BC7817",
"9  c #AE7203",
"0  c #826736",
"q  c #8B6E22",
"w  c #A17125",
"e  c #C07D00",
"r  c #C27316",
"t  c #BB8D07",
"y  c #AA8315",
"u  c #BC9819",
"i  c #B38D15",
"p  c #A98639",
"a  c #BA9933",
"s  c #B78B28",
"d  c #D19F02",
"f  c #C38B1A",
"g  c #C09A1A",
"h  c #CA9B0F",
"j  c #CEAB16",
"k  c #E1BD1F",
"l  c #CB9D21",
"z  c #C69927",
"x  c #D19D29",
"c  c #CD8E31",
"v  c #D49E35",
"b  c #C7962E",
"n  c #CAA325",
"m  c #CBAA2E",
"M  c #C9A52C",
"N  c #D4A42B",
"B  c #D4AC2B",
"V  c #CCA233",
"C  c #CBA73C",
"Z  c #CCAA3C",
"A  c #CAA932",
"S  c #D3AC33",
"D  c #DDAC35",
"F  c #D3AB3B",
"G  c #DDA93A",
"H  c #D9A437",
"J  c #C8B537",
"K  c #D4B435",
"L  c #DAB635",
"P  c #D5B43B",
"I  c #DBB43C",
"U  c #D9BA3B",
"Y  c #DDB12E",
"T  c #E1B62F",
"R  c #E2BC3D",
"E  c #E4BA3A",
"W  c #E1AF2C",
"Q  c #E8D718",
"!  c #DDCF2E",
"~  c #D7CA37",
"^  c #EAC43E",
"/  c #ECCB3D",
"(  c #E4C739",
")  c #F2CD3C",
"_  c #E7D338",
"`  c #F8D53B",
"'  c #F3D02E",
"]  c #AE9447",
"[  c #A7894E",
"{  c #BDA25B",
"}  c #C19941",
"|  c #CCA746",
" . c #D5A643",
".. c #D3AB44",
"X. c #DDAD45",
"o. c #D4AD4D",
"O. c #DEB442",
"+. c #DEB942",
"@. c #D8B94A",
"#. c #D5A755",
"$. c #C5B656",
"%. c #D7B65A",
"&. c #E2BC42",
"*. c #E4BD4B",
"=. c #E6B945",
"-. c #E5AE52",
";. c #E5BC54",
":. c #E5A54D",
">. c #D8BA67",
",. c #C7AC78",
"<. c #CDB165",
"1. c #DDC745",
"2. c #DDCE56",
"3. c #DFCC58",
"4. c #D8C457",
"5. c #DFD059",
"6. c #E5C442",
"7. c #EBC445",
"8. c #E2CB45",
"9. c #EDCA43",
"0. c #E5C34D",
"q. c #EBC34B",
"w. c #E4CB4D",
"e. c #EBCB4B",
"r. c #F3C444",
"t. c #F2CD45",
"y. c #F4C74C",
"u. c #F3CC4C",
"i. c #FCCD4F",
"p. c #EDD24C",
"a. c #E7D248",
"s. c #F5D34C",
"d. c #F9D34C",
"f. c #F6D546",
"g. c #E6C451",
"h. c #EBC352",
"j. c #EECB55",
"k. c #E3CB5B",
"l. c #EDCA59",
"z. c #E7C55D",
"x. c #F3C752",
"c. c #F3CD54",
"v. c #FBCD55",
"b. c #F2CD5B",
"n. c #FBCF59",
"m. c #EDD251",
"M. c #E2D35D",
"N. c #E7D95E",
"B. c #E9DA5D",
"V. c #EED45B",
"C. c #F5D353",
"Z. c #F9D353",
"A. c #F4D15B",
"S. c #FDD45D",
"D. c #F9DA59",
"F. c #F8E25B",
"G. c #DCCA65",
"H. c #DECC6A",
"J. c #DAC976",
"K. c #E3C76A",
"L. c #F4CD63",
"P. c #F1C36B",
"I. c #EADB64",
"U. c #E7D768",
"Y. c #FCD668",
"T. c #E4CA77",
"R. c #E6D472",
"E. c #EBDF7D",
"W. c #F7DD79",
"Q. c #F1CC7B",
"!. c #F5E66B",
"~. c #F3E27D",
"^. c #FAE678",
"/. c #B29C8F",
"(. c #B9A599",
"). c #B3A3A3",
"_. c #C9BD8D",
"`. c #E1BB96",
"'. c #CDBBB5",
"]. c #D1C59B",
"[. c #EDCF8E",
"{. c #EFD289",
"}. c #EBD491",
"|. c #F0E190",
" X c #F6E78A",
".X c #D8C8B5",
"XX c #EBDBA9",
"oX c #F4DDAB",
"OX c #E9D6B4",
"+X c #F1DDB6",
"@X c #F7E0AE",
"#X c #F9E1AF",
"$X c #F9EAA7",
"%X c #FFF0A4",
"&X c #FBE1B3",
"*X c #FDE9B9",
"=X c #FEF5B8",
"-X c #E3E9B0",
";X c #DED5D0",
":X c #E8D9CD",
">X c #FFD9C4",
",X c #FEE2CA",
"<X c #FCE8C4",
"1X c #FFF0C0",
"2X c #EAE6D9",
"3X c #F2EBDD",
"4X c #FDEDDC",
"5X c #FFE8D3",
"6X c #EBF2DB",
"7X c #FFF5D7",
"8X c #FFF3DB",
"9X c #FFFEDC",
"0X c #F4FEDC",
"qX c #EEEBC0",
"wX c #E8D7E7",
"eX c #EBE3ED",
"rX c #EDECEC",
"tX c #E9E8E4",
"yX c #F5EDE2",
"uX c #FCEEE8",
"iX c #ECF4E7",
"pX c #F4F4E3",
"aX c #FAF2E5",
"sX c #F4FFE5",
"dX c #FFFDE4",
"fX c #F5F4EC",
"gX c #FCF5EB",
"hX c #F3FEED",
"jX c #FEFDED",
"kX c #F9EAF7",
"lX c #ECF9F8",
"zX c #F5F4F4",
"xX c #FBF4F2",
"cX c #F5FDF4",
"vX c #FDFDF4",
"bX c #F5F4FC",
"nX c #FEF4FE",
"mX c #F5FCFD",
"MX c #FEFFFD",
"NX c #FFFDFF",
"BX c #FCFFFF",
"VX c white",
"CX c #FEFEFF",
"ZX c #FDFEFD",
"AX c #FFFFFF",
/* pixels */
"VXVXVXVXVXVXVXVXVXVXVXVXVXVXVXVXVXVXVXVXVXVXVXVXVXVXVXVXVXVXVXVXBXBXVXBXBXvXjXjXVXVXNXVXvXcXcXBXVXVXVXVXVXVXVXVXVXVXVXVXVXVXVXVX",
"VXVXVXVXVXVXVXVXVXVXVXVXVXVXVXVXVXVXVXVXVXVXVXVXVXVXVXVXVXVXVXVXdXjXjXZXVXVXVXVXcXnXvXnXZXvXNXNXVXVXVXVXVXVXVXVXVXVXVXVXVXVXVXVX",
"VXVXVXVXVXVXVXVXVXVXVXVXVXVXVXVXVXVXVXVXVXVXVXVXVXVXVXVXVXVXVXVXmXnXmXvXZXZXZXvXZXvXZXVXVXNXnXvXVXVXVXVXVXVXVXVXVXVXVXVXVXVXVXVX",
"VXVXVXVXVXVXVXVXVXVXVXVXVXVXVXVXVXVXVXVXVXVXVXVXVXVXVXVXVXVXVXVXNXNXnXVXZXcXhXhXbXmXnXBXVXNXVXnXVXVXVXVXVXVXVXVXVXVXVXVXVXVXVXVX",
"VXVXVXVXVXVXVXVXVXVXVXVXVXVXVXVXVXVXVXVXVXVXVXVXVXVXVXVXVXVXVXVXmXBXVXVXVXVXBXmXVXVXBXZXBXBXBXjXVXVXVXVXVXVXVXVXVXVXVXVXVXVXVXVX",
"VXVXVXVXVXVXVXVXVXVXVXVXVXVXVXVXVXVXVXVXVXVXVXVXVXVXVXVXVXVXVXVXVXvXgX8X7X7X9X9XgXdX9XjXBXBXmXsXVXVXVXVXVXVXVXVXVXVXVXVXVXVXVXVX",
"VXVXVXVXVXVXVXVXVXVXVXVXVXVXVXVXVXVXVXVXVXVXVXVXVXVXVXVXVXVXVXVXvX8X+X[.K.k.3.K.K.K.R.XXaXVXBXcXVXVXVXVXVXVXVXVXVXVXVXVXVXVXVXVX",
"VXVXVXVXVXVXVXVXVXVXVXVXVXVXVXVXVXVXVXVXVXVXVXVXVXVXVXVXVXVXVXVXH.>...V N D 7.C.f.) 8.{.4XNXVXhXVXVXVXVXVXVXVXVXVXVXVXVXVXVXVXVX",
"VXVXVXVXVXVXVXVXVXVXVXVXVXVXVXVXVXVXVXVXVXVXVXVXnXvXcXlXnXnXmXqXd %.@.~ M.H.8.D.d.d.b.I.nXZXZXZXVXVXVXVXVXVXVXVXVXVXVXVXVXVXVXVX",
"VXVXVXVXVXVXVXVXVXVXVXVXVXVXVXVXVXVXVXVXVXVXVXVXmXmXZXVXZXvXqX}.r.j >.*X^._ a.Z.d.d.A.I.NXVXZXZXVXVXVXVXVXVXVXVXVXVXVXVXVXVXVXVX",
"VXVXVXVXVXVXVXVXVXVXVXVXVXVXVXVXVXVXVXVXVXVXVXVXcXVXNXbXcX0X|.X.K 1.+X5XU.' d.v.s.v.A.I.NXZXZXZXVXVXVXVXVXVXVXVXVXVXVXVXVXVXVXVX",
"VXVXVXVXVXVXVXVXVXVXVXVXVXVXVXVXVXVXVXVXVXVXVXVXvXvXVXmXmX*Xk.j J 1X1XK.2.D.d.v.d.Z.b.I.NXZXZXZXVXVXVXVXVXVXVXVXVXVXVXVXVXVXVXVX",
"VXVXVXVXVXVXVXVXVXVXVXVXVXVXVXVXVXVXVXVXVXVXVXVXNXbXmXcX=X>.| g.=X*XR.! D.L.7.n.s.s.A.I.NXVXVXZXVXVXVXVXVXVXVXVXVXVXVXVXVXVXVXVX",
"VXVXVXVXVXVXVXVXVXVXVXVXVXVXVXVXVXVXVXVXVXVXVXVXnXnXcX-X1.T Q.,X4Xk.! D.t.t.Y.A.d.u.b.I.NXVXVXZXVXVXVXVXVXVXVXVXVXVXVXVXVXVXVXVX",
"VXVXVXVXVXVXVXVXVXVXVXVXVXVXVXVXVXVXVXVXVXVXVXVXnXdX$X@.@.!.%X#XT.( s.Y.^ t.Y.C.f.u.b.I.nXZXVXZXVXVXVXVXVXVXVXVXVXVXVXVXVXVXVXVX",
"VXVXVXVXVXVXVXVXVXVXVXVXVXVXVXVXVXVXVXVXVXVXVXZXhXJ.n h.*X7X|.~ Q Y.L.7.S.Y._ ) s.u.A.I.NXVXVXZXVXVXVXVXVXVXVXVXVXVXVXVXVXVXVXVX",
"VXVXVXVXVXVXVXVXVXVXVXVXVXVXVXVXiXZXNXhXmXVX=XoX@.( W.=X Xp.C.s.8.e.i.` P.p.d.i.u.c.j.B.NXZXBXNXVXVXVXVXVXVXVXVXVXVXVXVXVXVXVXVX",
"VXVXVXVXVXVXVXVXVXVXVXVXVXVXVXVXZXnXnX9X8XOX%.,.W.!.^.[.l.( e.t.a.A.r.' %.p.d.9.s.t.b.I.NXZXVXNXVXVXVXVXVXVXVXVXVXVXVXVXVXVXVXVX",
"VXVXVXVXVXVXVXVXVXVXVXVXVXVXVXVXZXnXkX[.%.o.i > p p.V.K.w.` C.u.8.D.v.k p U s.Z.u.u.j.I.NXZXBXNXVXVXVXVXVXVXVXVXVXVXVXVXVXVXVXVX",
"VXVXVXVXVXVXVXVXVXVXVXVXVXVXVXVXiXVXnX%.t Y u   > 1.s.l.) ) e.u.D.*.z t w e.s.7.u.u.c.N.NXZXVXNXVXVXVXVXVXVXVXVXVXVXVXVXVXVXVXVX",
"VXVXVXVXVXVXVXVXVXVXVXVXVXVXVXVXcXmXZX%.h W M + 2 D.f.h.) ) c.Y.=.l 9 7 6 x.v.r.u.u.j.I.NXZXNXNXVXVXVXVXVXVXVXVXVXVXVXVXVXVXVXVX",
"VXVXVXVXVXVXVXVXVXVXVXVXVXVXVXVXcXlXfX$.n H a @ , a.( Z.d.Z.h.+.f r r e 4 &.u.S.f.u.j.N.NXZXBXNXVXVXVXVXVXVXVXVXVXVXVXVXVXVXVXVX",
"VXVXVXVXVXVXVXVXVXVXVXVXVXVXVXVXZXVXvX$.v -.A X , m.9.Y.*.*. .y x r r 9 4 b.A.w.t.y.j.N.NXZXZXVXVXVXVXVXVXVXVXVXVXVXVXVXVXVXVXVX",
"VXVXVXVXVXVXVXVXVXVXVXVXVXVXVXVXnXVXVX$. .X.u X , F._ ;.s  .>.F D v c 9 ; k.B.w.t.y.j.N.NXZXmXVXVXVXVXVXVXVXVXVXVXVXVXVXVXVXVXVX",
"VXVXVXVXVXVXVXVXVXVXVXVXVXVXVXVXmXNXjX<.N D }   5 F #.[ ].vX,Xg A N W 0 & t.r.m.t.u.l.N.NXVXVXnXVXVXVXVXVXVXVXVXVXVXVXVXVXVXVXVX",
"VXVXVXVXVXVXVXVXVXVXVXVXVXVXVXVXcXfX9X<.n n | 3 p <.`.4XdXvXOXB Z H W 3 $ r.y.e.t.u.j.M.nXVXVXZXVXVXVXVXVXVXVXVXVXVXVXVXVXVXVXVX",
"VXVXVXVXVXVXVXVXVXVXVXVXVXVXVXVXvXvXjXXX{.T.$XOXaXdXkXVXhXcX+Xj Z N N - # t.i.w.t.e.j.M.NXZXVXZXVXVXVXVXVXVXVXVXVXVXVXVXVXVXVXVX",
"VXVXVXVXVXVXVXVXVXVXVXVXVXVXVXVXVXmXVXxXvXdXcXVXmXNXNXNXlXBX5Xh C H M = # u.v.0.r.9.j.M.nXVXVXZXVXVXVXVXVXVXVXVXVXVXVXVXVXVXVXVX",
"VXVXVXVXVXVXVXVXVXVXVXVXVXVXVXVXVXBXBXbXNXnXVXmXlXfXnXVXZXVX,Xg  .G M o % m.v.w.t.9.h.5.nXZXVXZXVXVXVXVXVXVXVXVXVXVXVXVXVXVXVXVX",
"VXVXVXVXVXVXVXVXVXVXVXVXVXVXVXVXjXvXcXZXVXVXZXcXmXjXxXVXiXkX>Xn F G A o = j.i.w.9.r.g.5.nXZXVXZXVXVXVXVXVXVXVXVXVXVXVXVXVXVXVXVX",
"VXVXVXVXVXVXVXVXVXVXVXVXVXVXVXVXgXvXhXcXvXvXNXcXlXvXVXVXjXBX,Xl Z D m o - 8.r.e.9.7.0.2.nXZXVXZXVXVXVXVXVXVXVXVXVXVXVXVXVXVXVXVX",
"VXVXVXVXVXVXVXVXVXVXVXVXVXVXVXVXNXnXBXBXnXNXnXVXBXVXnXVXcXhX+Xm F D m o : 6.7.e.t.7.g.2.nXvXVXVXVXVXVXVXVXVXVXVXVXVXVXVXVXVXVXVX",
"VXVXVXVXVXVXVXVXVXVXVXVXVXVXVXVXVXVXVXVXVXVXVXVXZXVXVXvXBXVXoXm G K J . * a.t.r.t.q.7.H.gXNXZXVXVXVXVXVXVXVXVXVXVXVXVXVXVXVXVXVX",
"VXVXVXVXVXVXVXVXVXVXVXVXVXVXVXVXVXVXVXVXVXVXVXVXZXVXVXvXmXVXoXm G M J * - w.6.u.9.x.6.H.gXNXZXNXVXVXVXVXVXVXVXVXVXVXVXVXVXVXVXVX",
"VXVXVXVXVXVXVXVXVXVXVXVXVXVXVXVXVXVXVXVXVXVXVXVXZXZXVXcXBXVXXXm =.V Z # % w.&.y./ *.6.G.gXNXZXNXVXVXVXVXVXVXVXVXVXVXVXVXVXVXVXVX",
"VXVXVXVXVXVXVXVXVXVXVXVXVXVXVXVXVXVXVXVXVXVXVXVXZXVXVXcXBXNX@XM F C P # $ e.0.7.9.q.6.H.vXNXvXVXVXVXVXVXVXVXVXVXVXVXVXVXVXVXVXVX",
"VXVXVXVXVXVXVXVXVXVXVXVXVXVXVXVXVXVXVXVXVXVXVXVXvXVXVXcXBXVXoXA F  .U > 1 j.h.6.t.*.7.R.vXVXZXNXVXVXVXVXVXVXVXVXVXVXVXVXVXVXVXVX",
"VXVXVXVXVXVXVXVXVXVXVXVXVXVXVXVXVXVXVXVXVXVXVXVXZXVXVXvXBXNXoXM P | P s b r.;.7.) *.6.R.vXVXZXNXVXVXVXVXVXVXVXVXVXVXVXVXVXVXVXVX",
"VXVXVXVXVXVXVXVXVXVXVXVXVXVXVXVXVXVXVXVXVXVXVXVXZXVXVXvXmXVXoXm L  .B  .=.^ ;./ / *.6.R.vXnXZXVXVXVXVXVXVXVXVXVXVXVXVXVXVXVXVXVX",
"VXVXVXVXVXVXVXVXVXVXVXVXVXVXVXVXVXVXVXVXVXVXVXVXvXVXVXcXBXVXoXm S o.n H E E l.( / =.6.R.vXVXcXNXVXVXVXVXVXVXVXVXVXVXVXVXVXVXVXVX",
"VXVXVXVXVXVXVXVXVXVXVXVXVXVXVXVXVXVXVXVXVXVXVXVXZXVXVXZXVXVXoXK E P &.S S &.R 7.7.7.*.U.NXVXVXVXVXVXVXVXVXVXVXVXVXVXVXVXVXVXVXVX",
"VXVXVXVXVXVXVXVXVXVXVXVXVXVXVXVXVXVXVXVXVXVXVXVXvXNXVXcXBXNX@XK O.F E I I q.6.e.^ 7.*.I.nXmXVXNXVXVXVXVXVXVXVXVXVXVXVXVXVXVXVXVX",
"VXVXVXVXVXVXVXVXVXVXVXVXVXVXVXVXVXVXVXVXVXVXVXVXZXNXVXvXBXNXoXK +.D =.I &.7.&.7.E 7.@.I.NXNXVXnXVXVXVXVXVXVXVXVXVXVXVXVXVXVXVXVX",
"VXVXVXVXVXVXVXVXVXVXVXVXVXVXVXVXVXVXVXVXVXVXVXVXvXNXVXvXBXNX@XK &.P &.O.R &.I 7.L R +.U.mXZXVXVXVXVXVXVXVXVXVXVXVXVXVXVXVXVXVXVX",
"VXVXVXVXVXVXVXVXVXVXVXVXVXVXVXVXVXVXVXVXVXVXVXVXvXNXNXZXBXVX&XK +.I R D I q.R &.E 6.*.U.VXmXVXVXVXVXVXVXVXVXVXVXVXVXVXVXVXVXVXVX",
"VXVXVXVXVXVXVXVXVXVXVXVXVXVXVXVXVXVXVXVXVXVXVXVXvXNXNXcXBXVX@XK O.I I S K j.e.u.u.d.j.W.nXmXBXZXVXVXVXVXVXVXVXVXVXVXVXVXVXVXVXVX",
"VXVXVXVXVXVXVXVXVXVXVXVXVXVXVXVXVXVXVXVXVXVXVXVXZXVXVXZXBXVXoXK I I I z m c.Z.c.d.Z.b.!.NXnXBXVXVXVXVXVXVXVXVXVXVXVXVXVXVXVXVXVX",
"VXVXVXVXVXVXVXVXVXVXVXVXVXVXVXVXVXVXVXVXVXVXVXVXvXVXVXcXBXNXoXK O.+.P u l e.Z.x.s.C.b.I.NXbXVXVXVXVXVXVXVXVXVXVXVXVXVXVXVXVXVXVX",
"VXVXVXVXVXVXVXVXVXVXNXZXVXVXmXVXVXVXVXVXVXVXVXVXNXnXvXsXmXNX+XP *.O.C b v b.A.V.9.Z./ ^.nXbXvXvXVXVXVXVXVXVXVXVXVXVXVXVXVXVXVXVX",
"VXVXVXVXVXVXVXVXVXVXVXZXZXVXVXVXVXVXVXVXVXZXZXVXnXVXZXvXBXNXoXI L I D u n 9.8.( w.j.( E.NXVXvXpXVXVXVXVXVXVXVXVXVXVXVXVXVXVXVXVX",
"VXVXVXVXVXVXVXVXVXVXVXVXVXVXVXVXVXVXVXVXVXVXVXVXjXVXVXZXmXVX#XJ K I I z n e.t._ A.A.6.E.xXBXcXvXVXVXVXVXVXVXVXVXVXVXVXVXVXVXVXVX",
"VXVXVXVXVXVXVXVXVXVXVXVXVXVXVXVXVXVXVXVXVXVXVXVXsXBXVXZXZXZX@Xm ..X.G s b c.A.j.^ u.9.~.xXbXcXxXVXVXVXVXVXVXVXVXVXVXVXVXVXVXVXVX",
"VXVXVXVXVXVXVXVXVXVXVXVXVXZXZXVXVXVXZXZXVXVXZXnXsXZXBXbXmXNXXXa  .| H s x x.h.6.) c.^ W.xXNXNXnXVXVXVXVXVXVXVXVXVXVXVXVXVXVXVXVX",
"VXVXVXVXVXVXVXVXVXVXVXVXNXnXZXZXnXNXZXmXmXzXvXmXsXrXkXrXrXtX.X] y 7 i i m j.b.j.+.o.b J.uXnXxXkXVXVXVXVXVXVXVXVXVXVXVXVXVXVXVXVX",
"VXVXVXVXVXVXVXVXVXVXVXnXmXZXmXvXmXmXbXzXzXrXrXrX6XeXeX2X2XtX.X,.<.] p q < < 1 3 & 2 0 ].VXBXvXnXVXVXVXVXVXVXVXVXVXVXVXVXVXVXVXVX",
"VXVXVXVXVXVXVXVXVXZXNXmXvXnXcXnXxXzXzXzXfXrXrXrX6XeXeX6X6XtXtXOX:X.X'.(./.).).).;XwX:XpXmXlXsXZXVXVXVXVXVXVXVXVXVXVXVXVXVXVXVXVX",
"VXVXVXVXVXVXVXVXZXVXZXVXZXZXVXVXvXbXmXvXmXxXxXmXmXcXbXzXvXcXpX3X:X3XyX2X2XyXaXyX4X3X3XaXnXZXVXBXVXVXVXVXVXVXVXVXVXVXVXVXVXVXVXVX",
"VXVXVXVXVXVXVXVXVXZXNXVXVXnXVXZXZXZXnXZXVXVXZXmXVXZXBXVXVXvXfXpXyXuXyX2X2XaXgXaXaXaXaXgXvXZXVXVXVXVXVXVXVXVXVXVXVXVXVXVXVXVXVXVX",
"VXVXVXVXVXVXVXVXVXZXVXZXZXBXZXVXVXVXVXVXVXVXVXVXZXVXVXVXVXZXvXgXuXxXgXyXyXgXgXuXgXgXgXvXVXVXVXVXVXVXVXVXVXVXVXVXVXVXVXVXVXVXVXVX",
"VXVXVXVXVXVXVXVXVXVXVXVXVXVXVXVXZXVXZXnXVXVXBXNXZXVXVXVXVXvXvXfXvXvXxXaXaXxXvXxXvXjXxXvXZXVXVXVXVXVXVXVXVXVXVXVXVXVXVXVXVXVXVXVX",
"VXVXVXVXVXVXVXVXVXVXVXVXVXVXVXVXVXmXVXVXVXVXVXVXZXZXBXVXVXVXvXjXvXZXvXzXzXxXZXZXvXvXvXvXZXVXVXVXVXVXVXVXVXVXVXVXVXVXVXVXVXVXVXVX",
"VXVXVXVXVXVXVXVXVXVXVXVXVXVXVXVXVXVXVXVXVXVXVXVXZXZXBXVXVXNXVXnXnXcXnXzXvXmXZXZXvXZXnXvXnXNXVXZXVXVXVXVXVXVXVXVXVXVXVXVXVXVXVXVX",
"VXVXVXVXVXVXVXVXVXVXVXVXVXVXVXVXVXVXVXVXVXVXVXVXcXZXVXVXVXVXVXVXVXVXNXVXVXVXVXVXcXvXZXZXvXVXVXNXVXVXVXVXVXVXVXVXVXVXVXVXVXVXVXVX",
"VXVXVXVXVXVXVXVXVXVXVXVXVXVXVXVXVXVXVXVXVXVXVXVXcXZXBXBXmXNXNXVXVXVXVXVXVXVXmXVXZXZXZXZXVXVXVXVXVXVXVXVXVXVXVXVXVXVXVXVXVXVXVXVX"
};
