/* XPM */
static char *c7d5335977174885c74dca504aa3fb01RxwQoIvnUqPQ34DQ[] = {
/* columns rows colors chars-per-pixel */
"64 64 243 2 ",
"   c #481C00",
".  c #4E2600",
"X  c #5D2D00",
"o  c #503A01",
"O  c #6F3E00",
"+  c #5E471B",
"@  c #684703",
"#  c #754C00",
"$  c #6D5200",
"%  c #7A5901",
"&  c #785A16",
"*  c #694F14",
"=  c #7E6407",
"-  c #5F5729",
";  c #765C32",
":  c #6C5325",
">  c #7F683A",
",  c #845D00",
"<  c #886804",
"1  c #9D760C",
"2  c #8C7317",
"3  c #9D7718",
"4  c #89620D",
"5  c #A77B0D",
"6  c #90742E",
"7  c #A17E3A",
"8  c #8E754B",
"9  c #AA861A",
"0  c #B8891C",
"q  c #BB9519",
"w  c #A98108",
"e  c #9C8221",
"r  c #B88629",
"t  c #BD9328",
"y  c #A98F3A",
"u  c #AE9438",
"i  c #B99A36",
"p  c #A88521",
"a  c #BAA33A",
"s  c #C59929",
"d  c #C99A37",
"f  c #C08E39",
"g  c #CAA72B",
"h  c #CEAD3A",
"j  c #C9A736",
"k  c #D4AC3A",
"l  c #D7A838",
"z  c #CBB23A",
"x  c #DAB33A",
"c  c #DCBA3D",
"v  c #D5B637",
"b  c #E1B73B",
"n  c #D3C13B",
"m  c #E9C63D",
"M  c #ECCC3D",
"N  c #E5C73C",
"B  c #F2CD3E",
"V  c #F0D13E",
"C  c #9B845A",
"Z  c #B99B49",
"A  c #B79D58",
"S  c #A48C51",
"D  c #BDA448",
"F  c #BBA559",
"G  c #AF996D",
"H  c #B8A876",
"J  c #B5A270",
"K  c #C69E45",
"L  c #C3A543",
"P  c #CAA443",
"I  c #CBAE4C",
"U  c #C9A946",
"Y  c #D2AD42",
"T  c #D3AC4B",
"R  c #D7A847",
"E  c #CBB148",
"W  c #DBB245",
"Q  c #D4BD4B",
"!  c #D8B548",
"~  c #C7A756",
"^  c #D4AE54",
"/  c #C9B359",
"(  c #D3B453",
")  c #D6B559",
"_  c #E5BD4C",
"`  c #E5BB46",
"'  c #E9BC52",
"]  c #E5B857",
"[  c #E1AF40",
"{  c #C4A962",
"}  c #CBB566",
"|  c #D6B665",
" . c #D6BC78",
".. c #CCB073",
"X. c #EABE63",
"o. c #E1BF77",
"O. c #DDC544",
"+. c #DAC353",
"@. c #DAC45C",
"#. c #D4C354",
"$. c #E4C343",
"%. c #E9C643",
"&. c #E5C943",
"*. c #ECCB44",
"=. c #E5C34B",
"-. c #EBC44B",
";. c #E5CB4A",
":. c #EDCB4B",
">. c #F3CC44",
",. c #F3C54C",
"<. c #F2CC4B",
"1. c #FACF4B",
"2. c #F3C543",
"3. c #ECD343",
"4. c #F3D447",
"5. c #F4D24C",
"6. c #FBD34C",
"7. c #FBDA46",
"8. c #EDC553",
"9. c #ECCB53",
"0. c #E2C35B",
"q. c #EBC45B",
"w. c #EDCB5C",
"e. c #E5C957",
"r. c #F3CC53",
"t. c #FACC55",
"y. c #F4CB5B",
"u. c #F3C657",
"i. c #EED252",
"p. c #ECD35B",
"a. c #E9D654",
"s. c #F3D354",
"d. c #FAD355",
"f. c #FFDA54",
"g. c #F3D45A",
"h. c #FCD559",
"j. c #F5D95B",
"k. c #FBDB5C",
"l. c #FFE65A",
"z. c #FEEB56",
"x. c #DBC46D",
"c. c #DDCB6D",
"v. c #DBC565",
"b. c #DCC97D",
"n. c #DCCA76",
"m. c #ECCB65",
"M. c #E5CC6C",
"N. c #E8C766",
"B. c #F2CE6A",
"V. c #F6CC62",
"C. c #EDD365",
"Z. c #E9D767",
"A. c #FAD565",
"S. c #E5CB76",
"D. c #EDD473",
"F. c #E4D779",
"G. c #FBD877",
"H. c #FFE565",
"J. c #FFEC6E",
"K. c #AE9E8B",
"L. c #BDAE9B",
"P. c #C7B387",
"I. c #D6BD86",
"U. c #CCB891",
"Y. c #C8B08B",
"T. c #C9B8A6",
"R. c #D9C687",
"E. c #DCCB8F",
"W. c #E7CB88",
"Q. c #E8D487",
"!. c #ECD595",
"~. c #EDDC9B",
"^. c #E7D797",
"/. c #F5DB95",
"(. c #EED78A",
"). c #FEE883",
"_. c #F8E79A",
"`. c #EEE296",
"'. c #DDCAA2",
"]. c #DCD2B7",
"[. c #EBD9A8",
"{. c #F4DFA9",
"}. c #EDD9BB",
"|. c #F5DDB9",
" X c #EEE3A8",
".X c #F8E6A9",
"XX c #FCECBC",
"oX c #F6E9B6",
"OX c #FEF5BA",
"+X c #F7ECAD",
"@X c #EAD9C7",
"#X c #F2DFCB",
"$X c #E9E3CA",
"%X c #FEEDC4",
"&X c #F9EACC",
"*X c #FEF4C4",
"=X c #FFFBC6",
"-X c #FFF4CC",
";X c #FFFDCB",
":X c #EDEAD3",
">X c #ECE7D9",
",X c #F4E5D3",
"<X c #F4ECDA",
"1X c #F8ECDC",
"2X c #F6EAD4",
"3X c #F4F2D7",
"4X c #FCF3D4",
"5X c #FFFCD4",
"6X c #F4F4DB",
"7X c #FCF5DD",
"8X c #FFFDDB",
"9X c #EEF0D8",
"0X c #F5EEE2",
"qX c #F6EDE8",
"wX c #F5F4E3",
"eX c #FCF5E2",
"rX c #FFFDE4",
"tX c #FEF5EC",
"yX c #F7F9EA",
"uX c #FEFDEC",
"iX c #F5F7E9",
"pX c #F5F4F3",
"aX c #FEF6F3",
"sX c #F6FBF4",
"dX c #FDFEF3",
"fX c #F4F5FC",
"gX c #FBF4FD",
"hX c #F6FDFD",
"jX c #FAFFFA",
"kX c #FEFEFA",
"lX c #FEFAFF",
"zX c #FAFEFE",
"xX c #FDFDFD",
"cX c #FFFFFD",
"vX c #FFFDFF",
"bX c #FCFFFF",
"nX c #FDFFFE",
"mX c #FEFEFE",
"MX c white",
"NX c #FEFFFF",
"BX c #FCFFFD",
"VX c #FEFEFE",
"CX c #EDECE7",
/* pixels */
"MXMXMXMXMXMXMXMXMXMXMXMXMXMXMXMXxXxXxXxXxXxXxXMXlXBXBXBXBXBXBXhXfXhXhXhXhXhXjXjXdXjXMXjXkXkXkXkXMXMXMXMXMXMXMXMXMXMXMXMXMXMXMXMX",
"MXMXMXMXMXMXMXMXMXMXMXMXMXMXMXMXxXMXxXxXMXxXMXBXBXBXBXhXBXBXBXBXhXhXhXhXhXsXsXjXkXMXMXMXMXxXkXkXMXMXMXMXMXMXMXMXMXMXMXMXMXMXMXMX",
"MXMXMXMXMXMXMXMXMXMXMXMXMXMXMXMXMXMXMXBXMXMXMXBXBXBXBXhXjXBXjXBXMXMXMXMXkXkXMXBXMXMXMXMXxXMXkXaXMXMXMXMXMXMXMXMXBXMXMXMXMXMXMXxX",
"MXMXMXMXMXMXMXMXMXMXMXMXMXMXMXMXjXBXhXjXBXBXBXBXBXkXkXkXdXdXdXyXrXrXrXuXuXdXkXlXxXxXgXxXMXMXkXkXkXMXMXMXMXMXMXMXMXxXMXxXMXxXMXMX",
"MXMXMXMXMXMXMXMXMXMXMXMXMXMXMXMXsXhXjXhXhXhXkXdXsXuXdXuXuXrXrX8X;X;X;X5XrXuXdXkXxXxXgXgXBXMXMXMXMXMXMXMXMXMXMXMXMXMXxXxXxXxXMXMX",
"MXMXMXMXMXMXMXMXMXMXMXMXMXMXMXBXjXhXhXsXjXdXdXdXdXuXrX8X-XXX+X X_._._. XXX-XrXdXkXMXMXMXxXBXBXBXMXMXMXMXMXMXMXMXMXxXxXxXlXjXMXMX",
"MXMXMXMXMXMXMXMXMXMXMXMXMXMXMXBXjXhXjXdXdXuXuXrX8X-XXX X^.Q.R.n.@.#.v.x.b.^.[.}.4XeXdXkXMXMXBXBXMXMXMXMXMXMXMXMXMXxXkXjXjXjXxXMX",
"MXMXMXMXMXMXMXMXMXMXMXMXMXMXMXMXBXdXdXuXuXrX4X5X{.[.Q.S.c.c.Z.e.Z.j.C.m.M.x.n.R. XXX5XrXdXjXBXMXMXMXMXMXMXMXMXMXMXMXgXjXgXlXMXMX",
"MXMXMXMXMXMXMXMXMXMXMXMXMXMXMXjXkXdXeXrX8X4X'.I..XQ.v.0.p.g.s.s.i.i.s.9.m.C.C.D.F.Q.^.=XrXkXfXxXxXMXMXMXMXMXMXMXxXxXxXxXxXxXMXxX",
"MXMXMXMXMXMXMXMXMXMXMXMXMXMXxXkXaX1XuXrX'.I.W._.B.m.8.r.5.4.M M 4.5.r.s.s.s.g.a.a.Z.F.`.5XuXxXxXxXMXMXMXMXMXMXMXjXxXxXxXxXMXMXMX",
"MXMXMXMXMXMXMXMXMXMXMXMXMXMXMXkXuX2X4X[...{ | G.8.u.d.1.>.B B B <.d.h.f.1.>.B 4.3.a.Z.F. X8XkXgXxXMXMXMXMXMXMXMXxXxXxXxXMXxXxXMX",
"MXMXMXMXMXMXMXMXMXMXMXMXMXMXMXaXrX7X[.J ..K T ] <.t.1.B >.6.d.1.f.r.,.r.d.f.7.B 7.3.a.Z.W.XXrXkXxXxXMXMXMXMXMXMXxXxXxXMXxXMXMXxX",
"MXMXMXMXMXMXMXMXMXMXMXMXMXMXMXuX&XXX .A ~ 9 _ r.1.6.>.>.d.A.h._ x s s s [ ' 1.B 7.V i.Z.M.^.-XuXkXMXMXMXMXMXMXMXMXxXMXxXMXMXxXMX",
"MXMXMXMXMXMXMXMXMXMXMXMXMXMXMXuX5X .F / 9 1 h.6.>.>.<.r.V.] I i 0 0 s s 5 0 l ,.7.V 4.j.Z.S..X8XdXMXMXMXMXMXMXMXMXMXMXMXMXxXMXxX",
"MXMXMXMXMXMXMXMXMXMXMXMXMXMXMXuX;XF D D < q f.M 4.>.<.w.N.| } | ! -.y.] R f l ' 5.>.5.j.Z.c.(.*XuXMXMXMXMXMXMXMXMXMXMXMXMXMXMXxX",
"MXMXMXMXMXMXMXMXMXMXMXMXMXMXMXuXE.D ) 9 $ v >.7.1.<.9.N.| W..X=X_.B.^ ] X.] R d %.1.s.s.A.C.D.XXuXxXMXMXMXMXMXMXMXMXMXMXMXMXxXMX",
"MXMXMXMXMXMXMXMXxXMXMXjXgXjXMXrX} U I % < _ -.d.:.H.e.M.} =X8X4X5XOX(.a ] ] [ b x %.8.j.5.k.' _.rXMXMXMXMXMXMXMXMXMXMXMXMXMXMXMX",
"MXMXMXMXMXMXMXMXMXMXMXxXxXMXfX6XF Q U @ # V.A.-.x C.v.n.R.5XuXdXdX5X_./ ] [ [ l ' g.C.9.&.1.y./.rXMXMXMXMXMXMXMXMXMXMXMXMXMXMXMX",
"MXMXMXMXMXMXMXMXMXxXjXxXMXMXpX$XA D y = 3 N.B.m.J.).c.n. X8XuXsXdXrXOX| R R R l 9 l j.9.:.y.V.W.rXMXMXMXMXMXMXMXMXMXMXMXMXMXMXMX",
"MXMXMXMXMXMXMXMXMXxXxXMXMXMXpX@XG F F D & . X , $ 2 S H &XrXsXMXyXuX5X .P d d d X 1 j.i.g.V.B.o.rXxXMXMXMXMXMXMXMXMXMXMXMXMXMXMX",
"MXMXMXMXMXMXMXMXxXMXMXMXxXxXfX<X[.^.I.R.E...A 6 6 * o - ].dXMXhXsXuX8XI.K d d K   5 h.:.w.N.B.S.rXMXMXMXMXMXMXMXMXMXMXMXMXMXMXMX",
"MXMXMXMXMXMXMXMXjXMXMXxXgXjXkXaX6X8X5X5X-X%XXX}.oX*X5X3XdXxXhXlXaXdXrXI.K j T i X s k.:.q.N.X.W.uXxXMXMXMXMXMXMXMXMXMXMXMXMXMXMX",
"MXMXMXMXMXMXMXMXgXMXxXjXsXjXxXkXdXrXeX7XrXrXrX8X8XrXuXyXkXfXhXhXkXuX8XI.K j ^ r O l f.*.V.G.) W.uXMXMXMXMXMXMXMXMXMXMXMXMXMXMXMX",
"MXMXMXMXMXMXMXMXxXMXxXjXgXxXxXsXpXdXdXdXuXdXuXuXdXuXkXBXlXBXhXBXkX7X-X} Z P R 5 , -.d.b 9.G.) ^.uXkXMXMXMXMXMXMXMXMXMXMXMXMXMXMX",
"MXMXMXMXMXMXMXMXMXMXMXMXMXMXMXMXMXMXMXMXMXMXkXkXMXMXMXlXfXhXBXMX1X8X_.F L ( d 5 0 t.2.:.g.m.} [.uXxXMXMXMXMXxXMXMXMXMXMXMXMXMXMX",
"MXMXMXMXMXMXMXMXMXMXMXMXMXMXMXMXMXMXBXBXBXMXBXMXMXhXfXMXMXMXlXaX7XXXx.L I E s w b 1.r.-.j.+.b.-XuXMXxXxXxXxXMXMXMXMXMXMXMXMXMXMX",
"MXMXMXMXMXMXMXMXMXMXMXMXMXMXMXMXBXBXBXhXBXBXBXBXMXgXhXxXMXkXdXuX5X(.U z E Y g g 1.<.t.=.i.#.^.8XdXMXxXMXMXxXMXxXMXMXMXMXMXMXMXMX",
"MXMXMXMXMXMXMXMXMXMXMXMXMXMXMXMXMXBXBXBXhXBXBXBXhXxXMXxXaXuXuX8X.X| h ! h k b B 6.2.t.q.p.c.oXuXdXMXMXMXxXMXxXMXMXMXMXMXMXMXMXMX",
"MXMXMXMXMXMXMXMXMXMXMXMXMXMXMXMXMXMXMXMXBXBXMXBXgXMXxXaXtXuX8XXX .^ h v g c s.1.2.2.,.y.@.`.4XuXMXxXMXMXMXMXxXMXMXMXMXMXMXMXMXMX",
"MXMXMXMXMXMXMXMXMXMXMXMXMXMXMXMXMXxXMXkXkXjXjXMXMXMXxXaXuX8XXXR.^ W h g v 3.s.-.,.t.,.w.x.OXuXkXkXMXMXxXxXMXMXxXMXMXMXMXMXMXMXMX",
"MXMXMXMXMXMXMXMXMXMXMXMXMXMXMXMXxXMXMXdXdXdXkXkXMXjXaXdXrX*XE.{ ) [ h x V 4.<.8.u.u.-.w.~.5XdXMXMXxXxXMXMXxXxXMXMXMXMXMXMXMXMXMX",
"MXMXMXMXMXMXMXMXMXMXMXMXMXMXMXMXxXxXkXkXkXkXkXkXMXtXtXrX*XW...( R l g c 4.N b V.u.8.8.M.*X7XjXhXMXMXxXMXMXxXMXMXMXMXMXMXMXMXMXMX",
"MXMXMXMXMXMXMXMXMXMXMXMXMXMXMXMXxXMXxXMXMXhXhXlXdXwXrX;XQ.~ Y x g g v &.4.M %.r.y.0.S.+X5XuXhXhXBXMXMXMXMXMXMXMXMXMXMXMXMXjXMXMX",
"MXMXMXMXMXMXMXMXMXMXMXMXMXMXMXMXxXgXxXxXMXBXBXMXdX8X*XQ.I Y [ l v O.;.*.N m %.8.] S.~.=XrXdXhXhXBXMXMXMXMXMXMXMXMXMXMXMXMXMXMXxX",
"MXMXMXMXMXMXMXMXMXMXMXMXMXMXMXMXkXkXMXxXxXxXMXdXrX=X~.} d E _ l =.r.s.m N *.8.+.S.!.-XuXdXkXhXBXBXMXMXMXMXMXMXMXMXMXMXMXMXxXxXxX",
"MXMXMXMXMXMXMXMXMXMXMXMXMXMXMXkXuXkXxXxXgXxXMXtX5X^./ E Y h W ' V.w.=.$.%.i.w.| !.%XtXkXMXMXkXjXMXMXMXMXMXMXMXMXMXMXMXMXMXMXxXxX",
"MXMXMXMXMXMXMXMXMXMXMXMXMXMXMXMXdXdXBXlXxXgXkX7X.X/ a j ! h ! A.u._ $.*.&.=.v.Q.XXeXxXxXxXMXdXuXkXMXMXMXMXMXMXMXxXMXMXxXMXxXxXxX",
"MXMXMXMXMXMXMXMXMXMXMXMXMXMXMXkXdXsXhXlXxXgXtXoX} I g v i.9.8.w._ ` :.:.$.Q M..X8XaXgXxXxXMXuXuXkXMXMXMXMXMXMXMXMXMXxXxXxXjXxXxX",
"MXMXMXMXMXMXMXMXMXMXMXMXMXMXMXBXjXjXjXaXkXeX|.I.D Y z v f.k.e.O.` %.*.;.+.c._.;XuXkXlXlXxXdXuXuXkXMXMXMXMXMXMXMXMXMXkXjXgXjXxXMX",
"MXMXMXMXMXMXMXMXMXMXMXMXMXMXMXBXhXjXdXyXrX%XW.Z ( c q q c :.;.;.>.>.O.#.c._.;XrXuXhXhXBXMXkXdXdXkXMXMXMXMXMXMXMXMXMXxXgXsXxXxXMX",
"MXMXMXMXMXMXMXMXMXMXMXMXMXMXMXMXhXjXuX4X;Xx.F ^ W s 0 l ,.:.&.N :.;.+.x.[.5XrXiXsXhXhXhXBXBXMXxXMXMXMXMXMXMXMXMXxXxXxXMXMXMXMXMX",
"MXMXMXMXMXMXMXMXMXMXMXMXMXMXMXMXBXdX8X5XQ.~ i W d s d ` :.*.N N O.+.c.~.4XuXdXMXMXBXjXjXMXxXxXxXMXMXMXMXMXMXMXMXxXxXxXMXxXMXMXMX",
"MXMXMXMXMXMXMXMXMXMXMXMXMXMXMXMXMXaX5X+XD a v k 0 d ' V.8.%.M V +.M./.*XuXaXgXgXBXdXdXyXsXgXgXgXxXMXMXMXMXMXMXMXMXMXMXxXMXMXMXMX",
"MXMXMXMXMXMXMXMXMXMXMXMXMXMXMXkXkXrX=X} a z b q s [ V.V.r.-.M 3.O.c._.=XrXaXaXdXuXrXrXrXdXkXxXgXxXMXMXMXMXMXMXMXMXMXMXMXMXMXMXMX",
"MXMXMXMXMXMXMXMXMXMXMXMXMXMXMXkXeX4XW.S L z g w x u.V.y.9.r.4.&.Z.).+XOXOX=X%X%X X X+XoX*X&XeXkXMXMXMXMXMXMXMXMXMXMXMXMXMXMXMXMX",
"MXMXMXMXMXMXMXMXMXMXMXMXMXMXMXdX8X.XF D E j w q r.t.t.:.r.s.5.;.z #.c.#./ } } ~ } } / } x.R.~.oXdXMXMXMXMXMXMXMXMXMXMXMXMXMXMXMX",
"MXMXMXMXMXMXMXMXMXMXMXMXMXMXMXuX-Xb.Z / U 9 w O.d.5.<.:.r.r.r.8.z n O.;.;.;.a.a.Q c ! Q #.@.Z._.rXMXMXMXMXMXMXMXMXMXMXMXMXMXMXMX",
"MXMXMXMXMXMXMXMXMXMXMXMXMXkXkXrX{.Z ~ ^ i < s j.<.<.:.>.1.:.:.r.l.l.z.J.z.z.7.z.7.>.3.j.p.;.w.(.rXMXMXMXMXMXMXMXMXMXMXMXMXMXMXMX",
"MXMXxXMXMXMXMXMXBXMXlXBXkXaXuX8X..K P P 3 < 8.9.r.>.:.*.%.*.s.k.j.j.i.:.*.M M *.>.%.-.$.9.w.] G.rXMXMXMXMXMXMXMXMXMXMXMXMXMXMXMX",
"xXxXMXMXMXMXBXMXlXMXlXMXMXuXuX*X| K R s , 9 g.r.-.:.5.:.*.%.*.*.*.-.*.%.&.*.*.>.:.&.<.t.y.8.] /.rXkXMXMXMXMXMXMXMXMXMXMXMXMXMXMX",
"xXxXMXMXkXMXBXMXBXMXgXMXdXuXuX|.~ K R 3 @ [ A.8.-.,.r.5.1.<.:.<.*.*.*.B 3.M V V M N &.Q $._ _ (.rXMXMXMXMXMXMXMXMXMXMXMXMXMXMXMX",
"xXxXMXkXkXBXMXMXBXMXlXBXdXuX7X'.~ R R # , V.V.-.u.8.:.-.-.' :.<.` m m M m m N N *.*.:.x =.A.q.S.rXMXMXMXMXMXMXMXMXMXMXMXMXMXMXMX",
"xXxXMXMXkXkXMXMXMXMXxXkXdXuX3XR.~ ] i   r A.' y.y.r.u.8.8.8.8.8.r.,.9.:.' -.` $.8.:.C.w.N.B.X.!.rXMXMXMXMXMXMXMXMXMXMXMXMXMXMXMX",
"xXMXMXMXMXkXMXMXMXMXMXkXdXuX&XL.) ] 1   W y.-.y._ _ 8.8.u.u.8.8.m.m.m.m.B.D.B.B.( D Z u 7 2 6 P.uXMXMXMXMXMXMXMXMXMXMXMXMXMXMXMX",
"xXxXMXMXkXkXMXMXjXxXjXsXyXrX$XJ I +.% @ =.=.s.=.j.j.s.r.s.9.e.0.~ ~ Z 7 6 4 * @ * * ; > 8 8 Y.4XdXkXMXMXMXMXMXMXMXMXMXMXMXMXMXMX",
"xXxXxXMXkXkXkXkXpXMXjXyXiX6X$XJ Z / $ < D.@.D.E i u e 2 = % $ @ O : ; 8 8 J ..U.'.|.&X}.,X0X,X0XkXMXMXMXMXMXMXMXMXMXMXMXMXMXMXMX",
"xXxXMXMXkXkXkXMXhXjXpXCX0XwX:X].L.G C > ; : + + - ; 8 8 G H U.T.@X@X#X&X&X&X,X,X,X<X>XCXCXqXqXpXMXMXMXMXMXMXMXMXMXMXMXMXMXMXMXMX",
"xXxXMXMXkXkXkXkXjXxXjXpXtXuXeX$X<X}.L.K.K.L.T.].@X#X,X<X1X1XtXtX#X,X,X<X1X1X1X1XqXiXqXCXqXpXfXlXMXMXMXxXxXMXMXMXMXMXMXMXMXMXMXMX",
"xXxXMXMXMXkXkXkXxXMXMXkXkXdXaXeX:X:X$X9X6X8X3X3X,X<X<X<X,X>X>X>XqX7X1XwX6XwX0XwXyXyXyXsXfXjXhXBXMXMXMXMXMXMXMXMXMXMXMXMXMXMXMXMX",
"xXxXMXMXkXkXkXkXgXMXMXxXxXMXdXuX6X9X:X:X3X6X3X9X9X6X<XwXiXqXyXyXtXeXrXrXrXiXyXuXyXdXyXsXaXsXjXBXkXMXMXxXMXMXMXMXMXMXMXMXMXMXMXMX",
"xXgXMXMXkXkXMXMXlXMXxXMXxXxXgXkXdXrX9X>X9XwXuXuXiXwXiXyXyXdXsXuXuXrXrXuXuXdXuXdXdXuXdXdXdXdXdXkXMXMXMXMXxXMXMXMXMXMXMXMXMXMXMXMX",
"xXxXMXMXkXkXkXMXMXMXxXxXxXxXgXkXsXsXsXdXdXdXuXyXdXdXdXdXdXkXkXkXdXdXdXaXdXdXdXkXkXkXkXdXkXdXkXMXMXMXMXkXMXMXMXMXMXMXMXMXMXMXMXMX",
"xXxXMXMXMXkXjXMXBXMXxXxXxXxXxXMXMXkXaXpXiXsXdXdXjXdXdXdXkXMXBXlXMXkXxXMXMXMXMXMXMXxXMXMXMXMXxXxXxXMXMXxXMXMXMXMXMXMXMXMXMXMXMXMX",
"xXxXMXMXkXkXMXMXBXlXgXxXxXxXgXxXMXMXjXjXkXjXdXkXkXkXkXkXMXMXMXBXMXMXxXxXxXxXxXxXxXgXxXgXxXxXxXgXMXMXMXMXMXMXMXMXMXMXMXMXMXMXMXMX"
};
