/* XPM */
static char *d870cca8091d4414bc653c025128b35dk9uzUFgeHsdk2Q1m[] = {
/* columns rows colors chars-per-pixel */
"64 64 240 2 ",
"   c #50350E",
".  c #5C3326",
"X  c #633929",
"o  c #594413",
"O  c #67532F",
"+  c #764F37",
"@  c #776928",
"#  c #7C6739",
"$  c #6C5011",
"%  c #7C6E49",
"&  c #8C7615",
"*  c #88782A",
"=  c #91762E",
"-  c #8B7B4C",
";  c #84764D",
":  c #977F4F",
">  c #957F50",
",  c #926345",
"<  c #A0744F",
"1  c #946062",
"2  c #948228",
"3  c #9E8D3F",
"4  c #B48E37",
"5  c #AC9636",
"6  c #AD9335",
"7  c #BDA83F",
"8  c #98844B",
"9  c #9E9047",
"0  c #8E8053",
"q  c #928254",
"w  c #9B8A59",
"e  c #A08C43",
"r  c #AA974B",
"t  c #B49747",
"y  c #A6945B",
"u  c #B49C5C",
"i  c #BBA557",
"p  c #B7AC52",
"a  c #998964",
"s  c #999372",
"d  c #A2946A",
"f  c #A99868",
"g  c #B4857B",
"h  c #A89976",
"j  c #B39976",
"k  c #9FA275",
"l  c #BBA868",
"z  c #BBAB74",
"x  c #B6A977",
"c  c #B0AB6F",
"v  c #C6AD56",
"b  c #C39C71",
"n  c #C8B564",
"m  c #D3BD6D",
"M  c #CCBA74",
"N  c #C8B774",
"B  c #D3BE76",
"V  c #D8C05E",
"C  c #D9C779",
"Z  c #DAC96F",
"A  c #E6D26D",
"S  c #E4CF74",
"D  c #E5CA7D",
"F  c #F4CD7B",
"G  c #E9D77B",
"H  c #EAD675",
"J  c #F2DE7C",
"K  c #F2DD74",
"L  c #EFE47E",
"P  c #B8AB86",
"I  c #BEB389",
"U  c #B8B797",
"Y  c #ACAA8E",
"T  c #C6B987",
"R  c #D2BB86",
"E  c #CAAF91",
"W  c #C2BB94",
"Q  c #C5BB9B",
"!  c #CBB993",
"~  c #C5BCA6",
"^  c #BEC09B",
"/  c #BBC086",
"(  c #CAC189",
")  c #D3C482",
"_  c #D2C48C",
"`  c #DCCF89",
"'  c #DAC987",
"]  c #C5C495",
"[  c #CBC795",
"{  c #D6C898",
"}  c #D7D396",
"|  c #D6D38F",
" . c #E1CE8B",
".. c #E7C685",
"X. c #F6CF80",
"o. c #E4D285",
"O. c #EBDB83",
"+. c #EBDC8F",
"@. c #EAD181",
"#. c #F3DF8B",
"$. c #F4D884",
"%. c #E8CD97",
"&. c #E5D29B",
"*. c #ECD49C",
"=. c #E9D995",
"-. c #F5DF94",
";. c #EBE58B",
":. c #F3E383",
">. c #FFEB85",
",. c #F3E48D",
"<. c #FAE48C",
"1. c #F5EE8D",
"2. c #FEE98D",
"3. c #F5E684",
"4. c #E9E296",
"5. c #F3E394",
"6. c #FAE496",
"7. c #FDEA94",
"8. c #FCE59C",
"9. c #FDEC9C",
"0. c #F3E698",
"q. c #FCF393",
"w. c #FCF698",
"e. c #C5C4A3",
"r. c #CAC9AA",
"t. c #D6CCA6",
"y. c #DED2A5",
"u. c #D7D6AC",
"i. c #D6CEBB",
"p. c #D8CDB3",
"a. c #DCD4B3",
"s. c #D8D5B6",
"d. c #E1C7A7",
"f. c #E3D4A2",
"g. c #E8D8A9",
"h. c #F2DCA4",
"j. c #FFDBA9",
"k. c #EBDCB9",
"l. c #E3D9B8",
"z. c #EBE4A5",
"x. c #FDECA2",
"c. c #FBECAB",
"v. c #F9E7AA",
"b. c #FCF4A5",
"n. c #FEF3AB",
"m. c #FEF9AC",
"M. c #FAF8A8",
"N. c #ECE3B3",
"B. c #E6E5BA",
"V. c #F5EFB5",
"C. c #F7E7B8",
"Z. c #FCF4B4",
"A. c #FEFAB5",
"S. c #FEF5BC",
"D. c #F6F8BA",
"F. c #FEFDBC",
"G. c #F4F7BB",
"H. c #DDDBC4",
"J. c #DBD5C3",
"K. c #DDDAD1",
"L. c #E4DCC0",
"P. c #E6DBC7",
"I. c #FDDFC7",
"U. c #E3DED5",
"Y. c #E7DDD5",
"T. c #ECE3C4",
"R. c #EDEBC4",
"E. c #E4E2CB",
"W. c #EDE5CC",
"Q. c #EDE9CC",
"!. c #E4E7C8",
"~. c #FEEEC5",
"^. c #F3E7CC",
"/. c #F4ECCC",
"(. c #FBEDCD",
"). c #F3E7C5",
"_. c #EFF1C5",
"`. c #F4F3C4",
"'. c #FCF5C5",
"]. c #FEFCC4",
"[. c #F5F5CC",
"{. c #FCF3CB",
"}. c #FEFCCC",
"|. c #F7FBC4",
" X c #E7E9D4",
".X c #EBECD2",
"XX c #E6E2D7",
"oX c #FCECD2",
"OX c #FCE8D9",
"+X c #F5EAD9",
"@X c #EEF1D7",
"#X c #F3F4D5",
"$X c #FCF5D3",
"%X c #FEFED3",
"&X c #F4F4DB",
"*X c #FBF3DB",
"=X c #FEFEDC",
"-X c #F6FAD5",
";X c #ECEBE4",
":X c #ECEDEE",
">X c #E6E5E6",
",X c #F4EDE4",
"<X c #FDECEA",
"1X c #F9EAE8",
"2X c #EFF4E2",
"3X c #EEF1EA",
"4X c #F4F3E3",
"5X c #FDF5E4",
"6X c #FFFCE4",
"7X c #F4F3EC",
"8X c #FBF5EC",
"9X c #FEFDEC",
"0X c #FCEDF1",
"qX c #F8EDF5",
"wX c #F5F5F4",
"eX c #FCF5F4",
"rX c #F6FBF5",
"tX c #FEFEF4",
"yX c #F6F2FA",
"uX c #FBF6FD",
"iX c #F6FCFC",
"pX c #FFFFF8",
"aX c #FFFFFA",
"sX c #FFFFFB",
"dX c #FFFEFB",
"fX c #FCFFFA",
"gX c #FBFFFD",
"hX c #FBFFFF",
"jX c #F9FFFE",
"kX c #FCFFFD",
"lX c #FFFFFD",
"zX c #FEFFFD",
"xX c #FFFDFF",
"cX c #FCFFFF",
"vX c #FFFEFF",
"bX c #FEFFFF",
"nX c white",
"mX c #FEFEFF",
"MX c #FEFFFE",
"NX c #E9EDF0",
/* pixels */
"nXnXnXnXnXnXnXnXnXnXnXnXnXnXnXnXnXnXnXdXgXrXpXtXtXrXpXdXxXxXxXxXnXxXnXxXnXxXnXnXnXnXhXnXhXhXgXdXnXnXnXnXnXnXnXnXnXnXnXnXnXnXnXnX",
"nXnXnXnXnXnXnXnXnXnXnXnXnXnXnXnXnXnXhXnXdXdXrXtXpXpXdXdXnXnXxXxXxXnXxXnXxXnXnXxXnXhXnXnXhXhXgXhXnXnXnXnXnXnXnXnXnXnXnXnXnXnXnXnX",
"nXnXnXnXnXnXnXnXnXnXnXnXnXnXnXnXnXhXnXhXhXgXgXgXdXdXdXdXnXnXnXnXnXnXxXnXxXnXnXnXnXnXnXnXhXhXhXhXnXnXnXnXnXnXnXnXnXnXnXnXnXnXnXnX",
"nXnXnXnXnXnXnXnXnXnXnXnXnXnXnXnXhXhXhXhXhXnXgXdXdXdXnXnXdXnXnXdXxXdXdXnXnXxXnXnXnXnXhXnXnXhXnXnXnXnXnXnXnXnXnXnXnXnXnXnXnXnXnXnX",
"nXnXnXnXnXnXnXnXnXnXnXnXnXnXnXnXhXhXhXhXhXhXnXnXnXnXnXdXdXdXdXdXdXdXdXdXdXnXdXnXnXnXnXhXnXnXnXnXnXnXnXnXnXnXnXnXnXnXnXnXnXnXnXnX",
"nXnXnXnXnXnXnXnXnXnXnXnXnXnXnXnXhXhXhXhXnXhXnXnXhXnXnXdXdXdXtXpXpXpXdXdXdXdXdXdXdXdXnXnXhXnXhXnXnXnXnXnXnXnXnXnXnXnXnXnXnXnXnXnX",
"nXnXnXnXnXnXnXnXnXnXnXnXnXnXnXnXgXiXhXhXhXnXxXnXnXnXnXdXpXtXtXtXtXpXpXpXpXpXpXpXpXpXdXnXnXnXnXhXnXnXnXnXnXnXnXnXnXnXnXnXnXnXnXnX",
"nXnXnXnXnXnXnXnXnXnXnXnXnXnXnXnXgXhXhXhXnXnXxXxXnXdXpXtXtX9X9X9X9XtX9XtXtX9XtXtXtXpXdXdXnXnXnXnXnXnXnXnXnXnXnXnXnXnXnXnXnXnXnXnX",
"nXnXnXnXnXnXnXnXnXnXnXnXnXnXnXhXgXgXrXdXdXtXpXpXdXdX8X9X&XH. X XE..X4X5X6X9X9X9XtXpX8XdXdXwXnXyXnXnXnXnXnXnXnXnXnXnXnXnXnXnXnXnX",
"nXnXnXnXnXnXnXnXnXnXnXnXnXnXnXnXgXhXrXdXpXpXpX5XW..Xs.!.@X!.@X.X&X&X.XE.E.Q.-X6X9X&X9XpXdXfXxXnXnXnXnXnXnXnXnXnXnXnXnXnXnXnXnXnX",
"nXnXnXnXnXnXnXnXnXnXnXnXnXnXnXnXhXdXrXpX9X5X*XP.a.oX/./.=X-X=X-X#X*X=X$X-X!.s.r.H.6X9X3XdXdX:XnXnXnXnXnXnXnXnXnXnXnXnXnXnXnXnXnX",
"nXnXnXnXnXnXnXnXnXnXnXnXnXnXnXnXfXnX8XpX5XT.a.[ I ~.%X%X=X=X6X=X=X=X%X=X-X%X[.R.e.!.9X4X9XdXrXnXnXnXnXnXnXnXnXnXnXnXnXnXnXnXnXnX",
"nXnXnXnXnXnXnXnXnXnXnXnXnXnXnXnXiXxXeX9XoXa.{ R z S.}.].]./.[.[.-X[.`.[.}.%X-X=X[.U e.tXtX;XpXdXnXnXnXnXnXnXnXnXnXnXnXnXnXnXnXnX",
"nXnXnXnXnXnXnXnXnXnXnXnXnXnXnXnXxXnXtX9X[.y.&.` M A.F.Z.%X%X=X=X%X%X%X%X%X}.`.G.%X_.Y r.9XrXrXdXnXnXnXnXnXnXnXnXnXnXnXnXnXnXnXnX",
"nXnXnXnXnXnXnXnXnXnXnXnXnXnXnXnXxXxXtX6X$Xf.=.o.n M.n.n.}.%X-X6X].}.|.|.].].}.%X_.=Xr.s @XrX4XdXdXnXnXnXnXnXnXnXnXnXnXnXnXnXnXnX",
"nXnXnXnXnXnXnXnXnXnXnXnXnXnXnXnXnXdX8X9X{.*. .C N F.].v.f.h a 1 ; a T 4.A.F.}.}.}.[.-X^ U 9XnXyXnXnXnXnXnXnXnXnXnXnXnXnXnXnXnXnX",
"nXnXnXnXnXnXnXnXnXnXnXnXnXnXnXdXtX9XtX8X~.*.o.+.N l.T - # # + . X   $ = C x.{.=X&X6X|.|.k 9XyXxXnXnXnXnXnXnXnXnXnXnXnXnXnXnXnXnX",
"nXnXnXnXnXnXnXnXnXnXnXnXnXnXnXdX9X9XdXeX(.%.B ) d p.E.k.k.%.< 1 X , = = & +.%X*X&X6X|.D.x &XyXxXnXnXnXnXnXnXnXnXnXnXnXnXnXnXnXnX",
"nXnXnXnXnXnXnXnXnXnXnXnXnXnXnXdXrX9XnXpX*Xf.{ { Q.9X6X*X=X=X<X<Xb < t 6 6 r }.{.*X=XG.D./ !.xXuXnXnXnXnXnXnXnXnXnXnXnXnXnXnXnXnX",
"nXnXnXnXnXnXnXnXnXnXnXnXnXnXnXdXrXiXhXxX5X/.).[.9XpXtX4X5X9XeXeXOXb v V A 2 S.=X%X=XD.F.[ u.nXxXnXnXnXnXnXnXnXnXnXnXnXnXnXnXnXnX",
"nXnXnXnXnXnXnXnXnXnXnXnXnXnXnXgXiXiXiXxXdX8X9X9X3XrXiXrXtX8X0X0X<Xj.n A A r 4.%X}.%XA.F.} u.iXhXnXnXnXnXnXnXnXnXnXnXnXnXnXnXnXnX",
"nXnXnXnXnXnXnXnXnXnXnXnXnXnXnXhXhXiXnXxXnXtXtXpXhXhXiXgXpXdXxXpXOXj.@.G ;.p } }.}.}.F.F.} B.rXhXnXnXnXnXnXnXnXnXnXnXnXnXnXnXnXnX",
"nXnXnXnXnXnXnXnXnXnXnXnXnXnXnXdXiXiXnXhXxXxXrXpXhXiXhXiXtXrXnX8X=X%.-.S ;.V Z.}.}.}.F.D.[ _.tXxXnXnXnXnXnXnXnXnXnXnXnXnXnXnXnXnX",
"nXnXnXnXnXnXnXnXnXnXnXnXnXnXnXnXrXgXiXxXxXxXxXnXdXrXtXtXtXdXnX7X=X{ l r * C F.].%X|.].|.] =XtXxXnXnXnXnXnXnXnXnXnXnXnXnXnXnXnXnX",
"nXnXnXnXnXnXnXnXnXnXnXnXnXnXnXdXdXdXdXnXuXuXxXpXeX9X6X8XtXtXtX9X$X> @ @ l F.Z.].%X`.`.`.B.&XpXiXnXnXnXnXnXnXnXnXnXnXnXnXnXnXnXnX",
"nXnXnXnXnXnXnXnXnXnXnXnXnXnXnXnXdXdXdXdXuXxXxX<X6X=X).{.6X+X X XQ d z ( z.}.}.=X%X=XB.e.Q.tXfXxXnXnXnXnXnXnXnXnXnXnXnXnXnXnXnXnX",
"nXnXnXnXnXnXnXnXnXnXnXnXnXnXnXnXxXtXtXpXxXxXuXOX! R z _ /.+X.X#XP.T.}.%X}.].].(.[.a.u.Q.5XtXnXxXnXnXnXnXnXnXnXnXnXnXnXnXnXnXnXnX",
"nXnXnXnXnXnXnXnXnXnXnXnXnXnXnXnXxXtX9XtXtXdXeX^.' ' l R $X*X=X-X=X=X%X%X].[.%XC.a.Q L.9XtXrXnXfXnXnXnXnXnXnXnXnXnXnXnXnXnXnXnXnX",
"nXnXnXnXnXnXnXnXnXnXnXnXnXnXnXxXxXuXtXtXpXdX8XN.*.<.i ) %X=X=X-X$X%XR.}.%X'.}.t.[ %X6X&XtXdXrXnXnXnXnXnXnXnXnXnXnXnXnXnXnXnXnXnX",
"nXnXnXnXnXnXnXnXnXnXnXnXnXnXnXnXxXxXtXtXrXdX8Xk.C H 6 m %X$X-X%X%X=X$X=X%X~.'.{ [ B.6X8X9XdXdXdXnXnXnXnXnXnXnXnXnXnXnXnXnXnXnXnX",
"nXnXnXnXnXnXnXnXnXnXnXnXnXnXnXnXxXxXdXpXrXrX9XN.#.>.7 C }.(.-X-X-X|.$X%X}.}.}.].N.] a.9X8XtXpXwXdXnXnXnXnXnXnXnXnXnXnXnXnXnXnXnX",
"nXnXnXnXnXnXnXnXnXnXnXnXnXnXnXnXuXnXgXrXiXgX9XB.` 2.5 B %X(.=X=X%X}.}.%X}.].F.Z.].N.U r.5XtX9XtXdXnXnXnXnXnXnXnXnXnXnXnXnXnXnXnX",
"nXnXnXnXnXnXnXnXnXnXnXnXnXnXnXnXnXdXgXiXiXhX7XE.W f 8 - a h I T { k.~.%X}.Z.Z.A.A.S.%Xr.Y 9X9XtXdXnXnXnXnXnXnXnXnXnXnXnXnXnXnXnX",
"nXnXnXnXnXnXnXnXnXnXnXnXnXnXnXnXdXpXgXgXhXiXrX4X~ Q Q ! T d % O   o # f _ Z.F.b.A.F.].B.r.Q.9X9XdXnXnXnXnXnXnXnXnXnXnXnXnXnXnXnX",
"nXnXnXnXnXnXnXnXnXnXnXnXnXnXnXdXdXdXhXiXiXhXdXrXtX8X6X6X6X6X*X(.h O   o @ N A.A.A.].V.].N.e.6XpXdXnXnXnXnXnXnXnXnXnXnXnXnXnXnXnX",
"nXnXnXnXnXnXnXnXnXnXnXnXnXnXnXnXdXdXnXhXhXhXnXdX8X5X5X6X6X8X9X9X8XE 8 * # 9 C F.S.S.M.].].W +XpXdXnXnXnXnXnXnXnXnXnXnXnXnXnXnXnX",
"nXnXnXnXnXnXnXnXnXnXnXnXnXnXnXdXgXdXdXhXgXgXrXdXrXpXpXtXtXeXwX1X8XI.R r r 5 9 S.F.c.n.m.S.t.^.eXdXnXnXnXnXnXnXnXnXnXnXnXnXnXnXnX",
"nXnXnXnXnXnXnXnXnXnXnXnXnXnXnXhXgXrXgXdXdXpXtXeXdXnXxXpXxXnXxXuXuX<Xh.r n p 9 h.].v.m.q.b.z.L.pXdXnXnXnXnXnXnXnXnXnXnXnXnXnXnXnX",
"nXnXnXnXnXnXnXnXnXnXnXnXnXnXnXnXnXrXrXpXpXtXtXpXwXiXnXhXnXnXuXqX<X5Xc.m J $.u &.F.c.w.q.1.z.p.pXnXnXnXnXnXnXnXnXnXnXnXnXnXnXnXnX",
"nXnXnXnXnXnXnXnXnXnXnXnXnXnXnXnXdXrXrXtX9X9X9XtXdXhXiXyXiXnXnXuXuXOXv.S J S u f.F.m.;.w.1.4.p.pXnXnXnXnXnXnXnXnXnXnXnXnXnXnXnXnX",
"nXnXnXnXnXnXnXnXnXnXnXnXnXnXnXnXhXiXtX9X^.6X*X9XtXdXhXhXiXhXxXxXuX*X*.S L K m v.Z.x.7.L ;.4.p.pXpXnXnXnXnXnXnXnXnXnXnXnXnXnXnXnX",
"nXnXnXnXnXnXnXnXnXnXnXnXnXnXnXhXiXrX8X.Xa.k.t.T.=XrXgXiXhXnXdXtXeXd.u 7 7 v F S.v.x.3.1.;.| E.dXpXnXnXnXnXnXnXnXnXnXnXnXnXnXnXnX",
"nXnXnXnXnXnXnXnXnXnXnXnXnXnXnXnXrXpX5Xs.{ %.z d.R..X&XrXtXtX6X5XoXj = = & 5 $.x.8.9.:.q.4.[ 1XpXxXxXnXnXnXnXnXnXnXnXnXnXnXnXnXnX",
"nXnXnXnXnXnXnXnXnXnXnXnXnXnXnXnXhXrX6Xg.%.%.u h.N.B.!..X@XR.k.d.d 8 e 5 5 A b.9.-.0.,.;.` y.9XtXxXxXnXnXnXnXnXnXnXnXnXnXnXnXnXnX",
"nXnXnXnXnXnXnXnXnXnXnXnXnXnXnXnXiXtX6Xd.%.$.t v.].D.B.u.[ x y 8 y b C Z K w.w.2.6.#.9.| ( Q.tXuXxXnXnXnXnXnXnXnXnXnXnXnXnXnXnXnX",
"nXnXnXnXnXnXnXnXnXnXnXnXnXnXnXhXrXtX=X&...X.4 -.M.m.D.D.F.A.n.c.v.Z.0.7.w.>.A J <.@.0._ t.6XtXpXxXdXnXnXnXnXnXnXnXnXnXnXnXnXnXnX",
"nXnXnXnXnXnXnXnXnXnXnXnXnXnXnXdXhX9X=Xh.F F 4 J b.M.M.V.M.x.7.7.n.n.5.,.q.3.K >.J D ) { /.6XtXdXxXnXnXnXnXnXnXnXnXnXnXnXnXnXnXnX",
"nXnXnXnXnXnXnXnXnXnXnXnXnXnXnXnXgX2X*Xg...X.4 X.9.w.M.b.9.7.2.2.1.0.6.O.G :.:.S O.' x B.9X8XfXnXnXiXnXnXnXnXnXnXnXnXnXnXnXnXnXnX",
"nXnXhXnXnXxXnXxXnXnXnXnXnXnXnXnXpX+X9Xl.P R u ` b.x.9.9.7.2.2.2.>.$.G G ,.5.+.} f ] Q.9XdXxXiXhXnXnXnXnXnXnXnXnXnXfXiXnXxXnXnXnX",
"nXdXxXpXnXiXpXxXnXnXnXnXnXnXnXdXpX,X9Xs.U P ; w C ` 5.x.M.9.6.#.<.7.7.6.+.) z f a.W.9XiXpXuXiXnXyXrXfXfXdXnXnXnXiXxXxXxXnXnXnXnX",
"nXxXiXnXdXnXnXxXnXnXnXnXxXuXfXfXpXeXpX8X*XT.Q I q w f z N R ) ) M N l f w f P Q s.H.U.XXU.>X>XNXwX:XwXyXyXnXxXxXxXiXxXpXxXnXnXnX",
"xXnXxXnXxXgXxXhXfXyXyXrXwXwXwXwX>X>XU.Y.P.i.~ P k d w 0 - - - - > w a a h P ~ p.i.J.K.U.>X>X:X:X:XwXwXwXrXyXfXfXpXxXxXxXdXnXnXnX",
"dXhXgXxXdXnXxXxXpXuXfXwXwXwXwXyXuXxX>X:X;XU.XXJ.i.s.s.l.P.P.T.W.J.Y.OX<X5X<X1X,X,X,X:XwXrXwX7X7XyXfXyXeXfXyXyXxXxXiXxXdXnXnXnXnX",
"nXxXxXnXhXxXpXnXxXiXxXxXnXfXpXiXyXuXyXuXxXeXdXpXpXpXtXtX8X5X1X,XxXuXqX<XqXqX8XwXnXpXeX7X7XwXrXrXfXxXiXfXdXnXfXfXpXxXfXxXxXnXnXnX",
"pXxXnXxXpXhXxXgXnXnXnXnXnXnXxXxXnXxXxXxXxXiXyXgXfXyXeXwXgXnXnXnXuXuXxXxXnXxXxXxXxXxXnXxXdXdXdXdXnXnXnXnXnXnXnXhXxXxXxXnXnXnXnXnX",
"iXnXxXnXxXxXnXxXnXnXnXnXnXnXnXnXnXyXxXxXxXxXnXhXiXiXnXhXhXhXiXiXnXnXxXiXuXuXiXxXyXiXxXnXnXnXnXdXnXnXnXnXnXnXnXnXiXfXiXxXfXnXnXnX",
"nXnXnXnXnXnXnXnXnXnXnXnXnXnXnXnXnXnXnXnXnXhXhXhXhXhXhXhXhXhXiXhXnXhXnXhXnXnXnXnXnXnXxXxXxXxXxXxXnXnXnXnXnXnXnXnXxXnXnXnXnXnXnXnX",
"nXnXnXnXnXnXnXnXnXnXnXnXnXnXnXnXnXdXgXnXhXhXhXhXhXiXhXiXiXiXhXiXhXgXgXnXgXgXnXnXnXnXnXnXxXxXxXxXxXnXnXnXnXnXnXnXnXnXnXnXnXnXnXnX",
"nXnXnXnXnXnXnXnXnXnXnXnXnXnXnXnXdXpXdXdXgXnXhXhXhXhXhXhXhXhXhXhXrXpXrXrXrXgXgXdXnXnXnXnXxXxXxXxXxXnXnXnXnXnXnXnXnXnXnXnXnXnXnXnX",
"nXnXnXnXnXnXnXnXnXnXnXnXnXnXnXdXdXrXdXdXdXhXnXhXhXnXnXhXhXhXgXgXdXrXpXpXpXpXpXdXdXnXnXnXxXxXxXxXnXnXnXnXnXnXnXnXnXnXnXnXnXnXnXnX",
"nXnXnXnXnXnXnXnXnXnXnXnXnXnXnXnXgXdXdXhXnXnXnXnXnXnXnXhXnXdXdXpXpXgXdXdXdXdXdXnXdXnXdXnXnXnXnXnXxXnXnXnXnXnXnXnXnXnXnXnXnXnXnXnX",
"nXnXnXnXnXnXnXnXnXnXnXnXnXnXnXdXnXdXdXnXnXxXnXxXnXnXnXnXxXpXpXdXnXnXnXxXnXnXnXnXnXdXnXdXdXdXdXdXnXnXnXnXnXnXnXnXnXnXnXnXnXnXnXnX",
"nXnXnXnXnXnXnXnXnXnXnXnXnXnXnXnXnXnXnXxXxXxXxXxXxXxXxXnXpXpXpXpXxXxXxXxXxXxXnXnXnXnXdXdXpXpXtXpXnXnXnXnXnXnXnXnXnXnXnXnXnXnXnXnX",
"nXnXnXnXnXnXnXnXnXnXnXnXnXnXnXnXnXnXnXnXxXxXxXxXxXxXxXpXxXtXtXpXxXxXxXxXxXxXnXnXnXdXdXpXpXtXtXpXdXnXnXnXnXnXnXnXnXnXnXnXnXnXnXnX"
};
