/* XPM */
static char *e3c955011e5e422cd6e2000baf632556CKW5DahYz0BnFURV[] = {
/* columns rows colors chars-per-pixel */
"64 64 249 2 ",
"   c #3D1A00",
".  c #401E00",
"X  c #462703",
"o  c #5A3400",
"O  c #623200",
"+  c #713900",
"@  c #503F21",
"#  c #584514",
"$  c #664D0C",
"%  c #745D29",
"&  c #6C5233",
"*  c #796F3E",
"=  c #5E4F2E",
"-  c #833B00",
";  c #874407",
":  c #954807",
">  c #975303",
",  c #83540C",
"<  c #A1550A",
"1  c #9D791B",
"2  c #9C7400",
"3  c #A67806",
"4  c #B67216",
"5  c #A96F10",
"6  c #9B7823",
"7  c #9C6F2E",
"8  c #A47728",
"9  c #A37E30",
"0  c #C77811",
"q  c #C0670B",
"w  c #C7732B",
"e  c #A78819",
"r  c #B4821C",
"t  c #B78A19",
"y  c #B1880C",
"u  c #9C892E",
"i  c #978B30",
"p  c #A38B25",
"a  c #B48825",
"s  c #BC9126",
"d  c #BA9938",
"f  c #AB8C32",
"g  c #BDA92E",
"h  c #C6981E",
"j  c #CD920F",
"k  c #D7B11A",
"l  c #C59924",
"z  c #CD9B2B",
"x  c #C69628",
"c  c #D69E22",
"v  c #C39132",
"b  c #CE9D34",
"n  c #C99C3B",
"m  c #D29A36",
"M  c #C28A2D",
"N  c #CBAB2A",
"B  c #C8A428",
"V  c #D5AB29",
"C  c #D8B62A",
"Z  c #CCA53A",
"A  c #C7A937",
"S  c #D2A633",
"D  c #D3AB34",
"F  c #D3AC3B",
"G  c #DAAE3C",
"H  c #D8A937",
"J  c #C8B538",
"K  c #D5B132",
"L  c #DDB333",
"P  c #DEBA37",
"I  c #DCB33B",
"U  c #D8B73B",
"Y  c #E4AE2C",
"T  c #E3BB2B",
"R  c #E2AC36",
"E  c #E2BC3C",
"W  c #E6B735",
"Q  c #E6B415",
"!  c #DCC63A",
"~  c #EAC72B",
"^  c #E4C332",
"/  c #E5C23C",
"(  c #EAC33B",
")  c #EAC937",
"_  c #F5C738",
"`  c #F3D638",
"'  c #EBCE2D",
"]  c #EEE13B",
"[  c #B89846",
"{  c #B3904E",
"}  c #BEB141",
"|  c #AF8D64",
" . c #90854F",
".. c #C79D44",
"X. c #CCAC44",
"o. c #C9A847",
"O. c #D3AD43",
"+. c #D8A744",
"@. c #CCB64D",
"#. c #DDB543",
"$. c #DDBA45",
"%. c #DAB54B",
"&. c #DCBB4B",
"*. c #D4B744",
"=. c #D3AE54",
"-. c #DBB957",
";. c #C8AD55",
":. c #E2B543",
">. c #E3BC43",
",. c #E4BC4A",
"<. c #EABC4C",
"1. c #E6B948",
"2. c #E7BB57",
"3. c #EFB74E",
"4. c #D8BC66",
"5. c #CBB775",
"6. c #D2B570",
"7. c #EEBF63",
"8. c #DCC244",
"9. c #D9C545",
"0. c #DCC856",
"q. c #DFD352",
"w. c #CAC04D",
"e. c #E6C343",
"r. c #EBC343",
"t. c #E2CB46",
"y. c #EDCB44",
"u. c #E5C34B",
"i. c #EBC44B",
"p. c #E4CC49",
"a. c #ECCB4B",
"s. c #F5C544",
"d. c #F1CB44",
"f. c #F2C54C",
"g. c #F4CB4D",
"h. c #FACA4B",
"j. c #F9CD46",
"k. c #EBD24C",
"l. c #E7D545",
"z. c #F4D343",
"x. c #F4D34B",
"c. c #FCD34A",
"v. c #FBD747",
"b. c #EBC452",
"n. c #ECCB54",
"m. c #EECC5A",
"M. c #E9C35A",
"N. c #F3CD51",
"B. c #FACC53",
"V. c #FACD5E",
"C. c #F3C95A",
"Z. c #E0D353",
"A. c #ECD351",
"S. c #F5D353",
"D. c #FBD454",
"F. c #F3D45B",
"G. c #FCD35B",
"H. c #F9D957",
"J. c #FFE25B",
"K. c #D6C76A",
"L. c #DAC773",
"P. c #DED47C",
"I. c #D5D36F",
"U. c #E9C868",
"Y. c #FCCD61",
"T. c #F6C965",
"R. c #E2D165",
"E. c #ECD967",
"W. c #FDD563",
"Q. c #F4D564",
"!. c #E2C676",
"~. c #E8D47A",
"^. c #FADB74",
"/. c #F8CE78",
"(. c #FDE579",
"). c #F3E266",
"_. c #B2ACAE",
"`. c #BCB396",
"'. c #C6BEB3",
"]. c #DCCB95",
"[. c #CFCB98",
"{. c #E4CC87",
"}. c #F8DA87",
"|. c #E9CA97",
" X c #E9D698",
".X c #FAE799",
"XX c #F7EA89",
"oX c #DACBA5",
"OX c #E9D9A6",
"+X c #F5DAA8",
"@X c #EBDDB4",
"#X c #EFD5B2",
"$X c #FBF5AD",
"%X c #EEE4B9",
"&X c #F6E4B7",
"*X c #F5EEB4",
"=X c #B9B0C3",
"-X c #CEBAC5",
";X c #C6C7C6",
":X c #CCCCCC",
">X c LightGray",
",X c #DDDDDD",
"<X c #D4C8DE",
"1X c #ECE3C6",
"2X c #FCE5C5",
"3X c #F7E9C7",
"4X c #F9F6C7",
"5X c #E8E3DD",
"6X c #FCEDD4",
"7X c #FDEAD8",
"8X c #FDF4D7",
"9X c #FFFBDD",
"0X c #FAF7DD",
"qX c #D4D4EC",
"wX c #E7DAE2",
"eX c #EADCF5",
"rX c #E3E3E3",
"tX c #EDE9E3",
"yX c #EBEBEB",
"uX c #E9E8E0",
"iX c #F3EDE3",
"pX c #FEECE5",
"aX c #F5EDED",
"sX c #FEEBE9",
"dX c #EEFAEA",
"fX c #FCF4E3",
"gX c #FEFBE5",
"hX c #F5F2ED",
"jX c #FCF5EE",
"kX c #F4FFEC",
"lX c #FDFDEC",
"zX c #F6F1E5",
"xX c #FAEEF6",
"cX c #EDF7FD",
"vX c #F5F5F5",
"bX c #FCF4F3",
"nX c #F4FDF3",
"mX c #FDFDF4",
"MX c #F4F4FD",
"NX c #FDF6FC",
"BX c #F5FDFC",
"VX c #FEFAFF",
"CX c #FAFEFF",
"ZX c white",
"AX c #FEFEFF",
"SX c #FEFDFE",
"DX c #FEFEFE",
"FX c #EDECFA",
"GX c #EED9D8",
/* pixels */
"ZXZXZXZXZXZXZXZXZXZXZXZXZXZXZXZXZXZXZXZXZXZXZXZXZXZXZXZXZXZXZXZXCXCXCXCXmXBXZXVXVXZXCXCXBXZXVXVXZXZXZXZXZXZXZXZXZXZXZXZXZXZXZXZX",
"ZXZXZXZXZXZXZXZXZXZXZXZXZXZXZXZXZXZXZXZXZXZXZXZXZXZXZXZXZXZXZXZXvXZXZXmXmXmXZXZXmXmXmXmXmXmXVXNXZXZXZXZXZXZXZXZXZXZXZXZXZXZXZXZX",
"ZXZXZXZXZXZXZXZXZXZXZXZXZXZXZXZXZXZXZXZXZXZXZXZXZXZXZXZXZXZXZXZXlXmXmXZXZXmXvXmXlXmXmXmXZXZXmXZXZXZXZXZXZXZXZXZXZXZXZXZXZXZXZXZX",
"ZXZXZXZXZXZXZXZXZXZXZXZXZXZXZXZXZXZXZXZXZXZXZXZXZXZXZXZXZXZXZXZXmXZXNXVXVXVXZXBXBXBXCXCXCXVXmXmXZXZXZXZXZXZXZXZXZXZXZXZXZXZXZXZX",
"ZXZXZXZXZXZXZXZXZXZXZXZXZXZXZXZXZXZXZXZXZXZXZXZXZXZXZXZXZXZXZXZXCXCXZXZXVXVXCXmXZXCXZXCXCXCXnXnXZXZXZXZXZXZXZXZXZXZXZXZXZXZXZXZX",
"ZXZXZXZXZXZXZXZXZXZXZXZXZXZXZXZXZXZXZXZXZXZXZXZXZXZXZXZXZXZXZXZXcXZXmXmXjXaXdX4XfXjXfXfXlXnXBXBXZXZXZXZXZXZXZXZXZXZXZXZXZXZXZXZX",
"ZXZXZXZXZXZXZXZXZXZXZXZXZXZXZXZXZXZXZXZXZXZXZXZXZXZXZXZXZXZXZXZXVXlX*X X X&X.XP.~.~.~.{.OX0XmXCXZXZXZXZXZXZXZXZXZXZXZXZXZXZXZXZX",
"ZXZXZXZXZXZXZXZXZXZXZXZXZXZXZXZXZXZXZXZXZXZXZXZXZXZXZXZXZXZXZXZXVX&XK.g M.XX(.w._ ` y.e.~.4XNXVXZXZXZXZXZXZXZXZXZXZXZXZXZXZXZXZX",
"ZXZXZXZXZXZXZXZXZXZXZXZXZXZXZXZXZXZXZXZXZXZXZXZXjXVXVXMXmXmXvXVX6Xn.Q =.1X*X0._ S.z.W.z.R.jXmXZXZXZXZXZXZXZXZXZXZXZXZXZXZXZXZXZX",
"ZXZXZXZXZXZXZXZXZXZXZXZXZXZXZXZXZXZXZXZXZXZXZXZXmXZXZXZXZXZXZXbX X&.V }.$XI.F.x.A.v.Y.z.R.lXmXZXZXZXZXZXZXZXZXZXZXZXZXZXZXZXZXZX",
"ZXZXZXZXZXZXZXZXZXZXZXZXZXZXZXZXZXZXZXZXZXZXZXZXZXvXmXZXMXZXlX%X%.J 4.$X(.U H.^.A.z.Y.z.R.mXmXZXZXZXZXZXZXZXZXZXZXZXZXZXZXZXZXZX",
"ZXZXZXZXZXZXZXZXZXZXZXZXZXZXZXZXZXZXZXZXZXZXZXZXZXnXkXZXVXVX4XI.V *..XXXN.v.( E.A.x.Y.z.R.lXmXZXZXZXZXZXZXZXZXZXZXZXZXZXZXZXZXZX",
"ZXZXZXZXZXZXZXZXZXZXZXZXZXZXZXZXZXZXZXZXZXZXZXZXCXmXkXnXVXbX{.J R E.(.q.n.W.i.l.A.x.V.z.R.lXmXZXZXZXZXZXZXZXZXZXZXZXZXZXZXZXZXZX",
"ZXZXZXZXZXZXZXZXZXZXZXZXZXZXZXZXZXZXZXZXZXZXZXZXCXNXnXmXmX&X-.V W (.q.l.G.Y.G.] A.z.V.z.R.jXmXZXZXZXZXZXZXZXZXZXZXZXZXZXZXZXZXZX",
"ZXZXZXZXZXZXZXZXZXZXZXZXZXZXZXZXZXZXZXZXZXZXZXZXmXZXZXmX3X!.G Y / F.u.z.D.C.W.` A.x.V.z.R.gXmXZXZXZXZXZXZXZXZXZXZXZXZXZXZXZXZXZX",
"ZXZXZXZXZXZXZXZXZXZXZXZXZXZXZXZXZXZXZXZXZXZXZXZXmXvXZXmX].X.R W ! %.^.c.~ W.F.) A.v.V.z.R.jXmXZXZXZXZXZXZXZXZXZXZXZXZXZXZXZXZXZX",
"ZXZXZXZXZXZXZXZXZXZXZXZXZXZXZXZXBXmXmXZXVXZXmXlXBXBXbX+X#.V W %.i.g.l.k.G.V.g.d.k.N.h.n.Z.NXlXZXZXZXZXZXZXZXZXZXZXZXZXZXZXZXZXZX",
"ZXZXZXZXZXZXZXZXZXZXZXZXZXZXZXZXCXZXmXZXZXVXZXmXCXmX2X6.F L E #.f.H.k.a.V.<.E x.A.S.S.S.Z.bXlXZXZXZXZXZXZXZXZXZXZXZXZXZXZXZXZXZX",
"ZXZXZXZXZXZXZXZXZXZXZXZXZXZXZXZXZXZXmXmXZXVXZXZXMXgX{.A D I U e.f.x.k.S.C.z l H.A.S.B.g.Z.mXlXZXZXZXZXZXZXZXZXZXZXZXZXZXZXZXZXZX",
"ZXZXZXZXZXZXZXZXZXZXZXZXZXZXZXZXVXVXlXmXmXCXZXZXmXOX@.N P #.I S.N.y.g.W.R 5 t G.k.g.B.g.Z.NXlXZXZXZXZXZXZXZXZXZXZXZXZXZXZXZXZXZX",
"ZXZXZXZXZXZXZXZXZXZXZXZXZXZXZXZXVXZXmXmXZXZXZXmX&X6.N C K #.n.x.S.i.S.3.5 > x S.k.a.B.S.Z.bXlXZXZXZXZXZXZXZXZXZXZXZXZXZXZXZXZXZX",
"ZXZXZXZXZXZXZXZXZXZXZXZXZXZXZXZXVXZXmXmXZXZXmXgX!.X.D C N e.G.a.N.S.h.M - > Z A.k.n.B.a.Z.bXlXZXZXZXZXZXZXZXZXZXZXZXZXZXZXZXZXZX",
"ZXZXZXZXZXZXZXZXZXZXZXZXZXZXZXZXNXmXCXCXZXmX8X#XK H F G W d.S.a.a.S.G 4 : < x Q.a.a.g.a.Z.NXlXZXZXZXZXZXZXZXZXZXZXZXZXZXZXZXZXZX",
"ZXZXZXZXZXZXZXZXZXZXZXZXZXZXZXZXmXZXCXBXZXmX1X5.k L ..+.S.z.e.F.a.i.h 4 w > 5 ).k.a.g.N.Z.bXlXVXZXZXZXZXZXZXZXZXZXZXZXZXZXZXZXZX",
"ZXZXZXZXZXZXZXZXZXZXZXZXZXZXZXZXNXVXCXdXmXjX6.k 3.l N t.n.N.N.y.T.j m v q : p H.s.p.A.B.u.NXkXVXZXZXZXZXZXZXZXZXZXZXZXZXZXZXZXZX",
"ZXZXZXZXZXZXZXZXZXZXZXZXZXZXZXZXVXZXnXvXmXOXO.H m S ! y.a.i.g.g.U.j Z b 0 ; p D.h.p.A.f.u.bXlXVXZXZXZXZXZXZXZXZXZXZXZXZXZXZXZXZX",
"ZXZXZXZXZXZXZXZXZXZXZXZXZXZXZXZXVXmXmXVX1X@.U m M #.a.a.d.h.i.a.{.B F D 0 ; p G.j.p.A.g.u.NXlXVXZXZXZXZXZXZXZXZXZXZXZXZXZXZXZXZX",
"ZXZXZXZXZXZXZXZXZXZXZXZXZXZXZXZXCXvXVXlX6.g W v S u.p.y.c.h.,.M.1XF X.N j + p W.s.t.n.f.>.bXkXVXZXZXZXZXZXZXZXZXZXZXZXZXZXZXZXZX",
"ZXZXZXZXZXZXZXZXZXZXZXZXZXZXZXZXmXMXVX XA N S x >.n.u.y.j.i.4. XmX%.F B M O u Y.s.t.n.f.$.xXlXZXZXZXZXZXZXZXZXZXZXZXZXZXZXZXZXZX",
"ZXZXZXZXZXZXZXZXZXZXZXZXZXZXZXZXkXZX3XA K G r R e.a.n.g.r.&.|.fXvXO.b V x o u B.s.t.A.f.>.xXkXVXZXZXZXZXZXZXZXZXZXZXZXZXZXZXZXZX",
"ZXZXZXZXZXZXZXZXZXZXZXZXZXZXZXZXmX8XL.s L z h b.r.u.n.a.e.!.3XZXmXF m H m X u B.s.t.A.f.U aXkXVXZXZXZXZXZXZXZXZXZXZXZXZXZXZXZXZX",
"ZXZXZXZXZXZXZXZXZXZXZXZXZXZXZXZXVX].g G z t :.M.z.t.n.i.,.}.jXMXmX#.m H ... u G.s.t.k.f.U xXlXVXZXZXZXZXZXZXZXZXZXZXZXZXZXZXZXZX",
"ZXZXZXZXZXZXZXZXVXVXmXmXCXcXZXMX.X;.=.O.a S r.( 2.g.d.8.{.7XmXkXxX*.c Y +.  8 v.( 7.C.` K 0XZXkXCXmXlXlXmXZXZXCXZXZXZXZXZXZXZXZX",
"ZXZXZXZXZXZXZXZXZXZXbXmXCXZXmX7XO.X.Z t t I g.i.i.e.U K.1XZXZXCXMX&.S c d X f c.~ 7.<.) A 7XMXBXZXZXZXZXVXZXZXmXZXZXZXZXZXZXZXZX",
"ZXZXZXZXZXZXZXZXBXmXNXMXCXmX9X|.l P h t I i.u.,.x.e.0.OXjXVXMXMXiXX.F B } X u H.) b.b.) @.sXVXZXVXZXZXZXZXZXZXmXZXZXZXZXZXZXZXZX",
"ZXZXZXZXZXZXZXZXdXZXVXCXZXlX Xo.D l 3 l g.f.i.b.( &.L.4XZXVXmXlXgX9.2.#.o.X 6 G.( i.g.( -.2XsXfXgXmXZXCXZXmXZXmXZXZXZXZXZXZXZXZX",
"ZXZXZXZXZXZXZXZXnXCXZXZXZX3X4.l 2.8 a 3.h.>.s.y.B.,.!.&X6X&X+X.X|.y a r r O 8 B.e.i.i.( $.{.{.~.XX*XfXBXCXmXZXVXZXZXZXZXZXZXZXZX",
"ZXZXZXZXZXZXZXZXCXZXVXVXmX%Xo.L 7 , ..Y.>.r.a.E 3.m a [ [ d a r [ 3 4 r l v +.i.<.e.d.r.e.m.*.8.9.~.3XmXCXZXZXVXZXZXZXZXZXZXZXZX",
"ZXZXZXZXZXZXZXZXZXZXZXNXmXOXo.W $ O n b.I g.i.e.N.,.H H I E E >.2.~ M.V.D.^.B.e.b.e.d.r.i.S.e.y.~ U.2XmXCXmXZXVXZXZXZXZXZXZXZXZX",
"ZXZXZXZXZXZXZXZXVXVXZXvXlXOXo.Y -.p n.i.P h.I i.e.n.g._ ~ _ N.U.i.' -.m.C C.U ! a.( ( E 2.f.E s.^ /.7XVXCXBXmXVXZXZXZXZXZXZXZXZX",
"ZXZXZXZXZXZXZXZXmXZXmXkXmX&XF :.V L >.r.r./ E E E ( ( s.i.e.<.,.i.u.$.8.y./ >.2.y.( ) b.M.<.>.<.W U.4XZXCXZXmXmXZXZXZXZXZXZXZXZX",
"ZXZXZXZXZXZXZXZXmXVXCXmXVX+XD R F G :.,.i.b.m.F.r.r.s.E E / ^ / ( e.e./ ( r.>.>.,./ / E >.E ( ~ _ Q.4XmXMXZXZXmXZXZXZXZXZXZXZXZX",
"ZXZXZXZXZXZXZXZXmXVXZXZXVX+XD W #.>.>.1.,.$.$.$.2.2.<.<.<.i.u.i.T r.>.E >.y.r.P b.i./ / e.e.( ~ Q Z.$XlXNXZXZXZXZXZXZXZXZXZXZXZX",
"ZXZXZXZXZXZXZXZXmXCXCXmXVX&XU T V R E r.r.s.r.>.r.r.e.r.e.e.e.u.B.B.B.<.,.C.N.! U &./ ^ e.2.-.U %.K.*XmXmXZXZXCXZXZXZXZXZXZXZXZX",
"ZXZXZXZXZXZXZXZXlXVXZXmXNX&X*.K T W ( _ s.d.( ( ~ ~ ~ ) P U D Z [ s x x v +.b.e.^ b.a.) m. X#X{.+X@XgXZXmXZXNXCXZXZXZXZXZXZXZXZX",
"ZXZXZXZXZXZXZXZXlXMXmXmXZX8XP.L.F A A d d d d d f d [ | | | | | | 9 1 t 4 d &.a.v.Q.G.l.^.7XVXgXlXbXZXZXNXmXmXCXZXZXZXZXZXZXZXZX",
"ZXZXZXZXZXZXZXZXmXMXmXlXZXmX4X6XOX].|.oXOX@X%X3XjXbXNXZXmXZXVXVXgX{.&.e.F b &.S.` Q.M.) E.0XVXnXVXMXZXMXbXmXCXCXZXZXZXZXZXZXZXZX",
"ZXZXZXZXZXZXZXZXZXMXZXBXMXZXmXVXVXVXNXMXVXZXZXZXBXBXmXBXmXnXkXkXfX6.N ^ B t I H.z.T.m.' ).0XCXdXmXBXZXZXmXmXCXCXZXZXZXZXZXZXZXZX",
"ZXZXZXZXZXZXZXZXZXZXZXZXZXZXZXZXNXBXZXZXZXZXZXZXZXZXZXZXZXZXZXZXCXM.C R K s F ` l.A.S.a.}.gXZXBXZXZXVXZXVXBXmXNXZXZXZXZXZXZXZXZX",
"ZXZXZXZXZXZXZXZXVXZXZXZXZXBXmXNXZXZXmXZXZXZXNXCXmXMXBXNXNXCXBXZXaX@.C :.S s -.J.k.m.F.t.U.6XNXBXZXZXZXZXZXZXZXVXZXZXZXZXZXZXZXZX",
"ZXZXZXZXZXZXZXZXZXZXZXZXCXNXZXCXZXZXZXZXZXZXZXZXZXZXZXZXZXZXZXZXmXw.K 1.Z a -.g.N.m.k.^ (.9XZXBXZXZXZXZXZXZXZXZXZXZXZXZXZXZXZXZX",
"ZXZXZXZXZXZXZXZXZXZXZXZXZXZXZXZXZXZXZXZXZXZXZXZXZXZXZXmXZXZXmXVXlX} V 1.x y ,.j._ f.z.^ E.8XMXcXZXmXCXZXZXZXZXZXZXZXZXZXZXZXZXZX",
"ZXZXZXZXZXZXZXZXZXZXZXZXZXZXZXZXZXZXVXmXmXBXZXZXNXBXmXZXZXCXZXZXbXo.D +.y 2 K _ _ B.S.( R.7XNXCXvXNXNXBXZXZXZXZXZXZXZXZXZXZXZXZX",
"ZXZXZXZXZXZXZXZXNXZXZXZXZXZXZXZXZXZXBXNXCXNXBXNXmXNXMXvXyXyXyXrXwX{ 1 7 e e %.u.O...d f 5.GXeXwXvXBXNXCXZXZXZXZXZXZXZXZXZXZXZXZX",
"ZXZXZXZXZXZXZXZXZXZXZXmXZXCXNXmXvXvXaXyXyXrXyXrXrX,X,X>X>X:X;X;X<X .% & % # & # # # = * `.VXZXmXNXmXZXZXZXZXZXZXZXZXZXZXZXZXZXZX",
"ZXZXZXZXZXZXZXZXZXZXZXBXNXvXvXvXyXrX,X,X>X:X:X:X;X;X:X:X:X>X>X>XqX[.oX-X'._.=X_.;XqXFX5XyXCXCX0XZXZXZXZXZXZXmXZXZXZXZXZXZXZXZXZX",
"ZXZXZXZXZXZXZXZXZXZXCXNXvXvXhXvXrXrXrXrXrX,X5X,XyXyXyXyXyXvXvXvXFXrX5XtXtX5XtXjX0XiX7XiXvXNXVXZXZXZXZXZXZXZXZXZXZXZXZXZXZXZXZXZX",
"ZXZXZXZXZXZXZXZXZXZXZXZXBXNXBXvXNXvXvXvXvXvXvXvXvXVXmXBXZXZXZXZXmXaXtXtXtX5XtXjXzXzXiXhXbXmXZXZXZXZXZXZXZXZXZXZXZXZXZXZXZXZXZXZX",
"ZXZXZXZXZXZXZXZXZXZXZXZXZXZXZXZXZXZXZXZXZXZXZXZXZXZXZXZXZXZXZXZXmXmXhXjXhXtXyXmXjXjXhXjXmXZXZXZXZXZXZXZXZXZXZXZXZXZXZXZXZXZXZXZX",
"ZXZXZXZXZXZXZXZXCXmXZXZXZXZXZXZXNXZXZXZXZXZXBXZXZXZXNXZXZXZXZXBXZXNXmXvXhXyXaXmXmXmXmXbXmXZXZXZXZXZXZXZXZXZXZXZXZXZXZXZXZXZXZXZX",
"ZXZXZXZXZXZXZXZXmXCXVXZXZXZXZXmXmXZXVXCXZXZXZXZXZXZXZXZXZXZXZXZXZXmXNXbXmXvXmXNXNXmXmXmXmXZXZXZXZXZXZXZXZXZXZXZXZXZXZXZXZXZXZXZX",
"ZXZXZXZXZXZXZXZXZXZXZXZXZXZXZXZXZXZXZXZXZXZXZXZXZXZXZXZXZXZXZXZXmXZXmXCXNXnXZXmXZXmXmXNXZXmXZXmXZXZXZXZXZXZXZXZXZXZXZXZXZXZXZXZX",
"ZXZXZXZXZXZXZXZXZXZXZXZXZXZXZXZXBXZXZXmXZXZXZXZXZXZXZXZXZXVXZXZXCXZXZXmXBXZXmXZXZXVXNXCXZXZXZXBXZXZXZXZXZXZXZXZXZXZXZXZXZXZXZXZX",
"ZXZXZXZXZXZXZXZXZXZXZXZXZXZXZXZXVXCXZXVXZXZXZXZXZXZXZXZXZXZXZXZXmXZXZXZXmXmXZXZXZXZXmXZXZXmXmXBXZXZXZXZXZXZXZXZXZXZXZXZXZXZXZXZX"
};
